M48
;DRILL file {Pcbnew (2013-03-10 BZR 3992)-stable} date 3/16/2013 5:48:37 PM
;FORMAT={-:-/ absolute / inch / decimal}
FMAT,2
INCH,TZ
T1C0.025
T2C0.032
T3C0.065
%
G90
G05
M72
T1
X0.09Y0.52
X0.278Y0.3437
X0.2986Y0.4178
X0.3425Y0.3525
X0.3963Y0.8725
X0.465Y0.4125
X0.505Y0.39
X0.52Y0.76
X0.54Y0.61
X0.63Y0.5
X0.66Y0.04
X0.7679Y0.2389
X0.7868Y0.4467
X0.87Y0.09
X0.8716Y0.2359
X0.8968Y0.7521
X0.8971Y0.2746
X0.8983Y0.3449
X0.9297Y0.2362
X0.9464Y0.4464
X0.9997Y0.7028
X1.0211Y0.335
X1.0917Y0.3071
X1.2Y0.42
X1.275Y0.65
T2
X0.36Y0.72
X0.36Y0.62
X0.69Y0.83
X0.79Y0.83
X0.94Y0.66
X0.94Y0.56
X1.17Y0.94
X1.17Y0.84
X1.17Y0.3
X1.17Y0.2
T3
X0.07Y1.08
X0.07Y0.07
X1.25Y1.08
X1.25Y0.07
T0
M30
