G04 (created by PCBNEW (2013-03-31 BZR 4008)-stable) date 4/4/2013 9:15:26 PM*
%MOIN*%
G04 Gerber Fmt 3.4, Leading zero omitted, Abs format*
%FSLAX34Y34*%
G01*
G70*
G90*
G04 APERTURE LIST*
%ADD10C,0.000393701*%
%ADD11C,0.006*%
%ADD12C,0.005*%
%ADD13C,0.008*%
%ADD14C,0.012*%
%ADD15C,0.0026*%
%ADD16C,0.0059*%
%ADD17R,0.031474X0.062974*%
%ADD18R,0.027874X0.052874*%
%ADD19R,0.067874X0.087874*%
%ADD20R,0.062874X0.062874*%
%ADD21C,0.062874*%
%ADD22R,0.0314961X0.0551181*%
%ADD23R,0.066874X0.055074*%
%ADD24R,0.086574X0.125974*%
%ADD25R,0.11811X0.0944882*%
%ADD26R,0.0295276X0.0393701*%
%ADD27C,0.087874*%
%ADD28R,0.124409X0.057874*%
G04 APERTURE END LIST*
G54D10*
G54D11*
X2459Y6336D02*
X2435Y6348D01*
X2400Y6348D01*
X2364Y6336D01*
X2340Y6313D01*
X2328Y6289D01*
X2316Y6241D01*
X2316Y6205D01*
X2328Y6158D01*
X2340Y6134D01*
X2364Y6110D01*
X2400Y6098D01*
X2423Y6098D01*
X2459Y6110D01*
X2471Y6122D01*
X2471Y6205D01*
X2423Y6205D01*
X2578Y6098D02*
X2578Y6348D01*
X2721Y6098D01*
X2721Y6348D01*
X2840Y6098D02*
X2840Y6348D01*
X2900Y6348D01*
X2935Y6336D01*
X2959Y6313D01*
X2971Y6289D01*
X2983Y6241D01*
X2983Y6205D01*
X2971Y6158D01*
X2959Y6134D01*
X2935Y6110D01*
X2900Y6098D01*
X2840Y6098D01*
X309Y5336D02*
X285Y5348D01*
X250Y5348D01*
X214Y5336D01*
X190Y5313D01*
X178Y5289D01*
X166Y5241D01*
X166Y5205D01*
X178Y5158D01*
X190Y5134D01*
X214Y5110D01*
X250Y5098D01*
X273Y5098D01*
X309Y5110D01*
X321Y5122D01*
X321Y5205D01*
X273Y5205D01*
X428Y5098D02*
X428Y5348D01*
X571Y5098D01*
X571Y5348D01*
X690Y5098D02*
X690Y5348D01*
X750Y5348D01*
X785Y5336D01*
X809Y5313D01*
X821Y5289D01*
X833Y5241D01*
X833Y5205D01*
X821Y5158D01*
X809Y5134D01*
X785Y5110D01*
X750Y5098D01*
X690Y5098D01*
X10200Y2950D02*
X11000Y2950D01*
X2485Y4122D02*
X2473Y4110D01*
X2438Y4098D01*
X2414Y4098D01*
X2378Y4110D01*
X2354Y4134D01*
X2342Y4158D01*
X2330Y4205D01*
X2330Y4241D01*
X2342Y4289D01*
X2354Y4313D01*
X2378Y4336D01*
X2414Y4348D01*
X2438Y4348D01*
X2473Y4336D01*
X2485Y4325D01*
X2640Y4348D02*
X2688Y4348D01*
X2711Y4336D01*
X2735Y4313D01*
X2747Y4265D01*
X2747Y4182D01*
X2735Y4134D01*
X2711Y4110D01*
X2688Y4098D01*
X2640Y4098D01*
X2616Y4110D01*
X2592Y4134D01*
X2580Y4182D01*
X2580Y4265D01*
X2592Y4313D01*
X2616Y4336D01*
X2640Y4348D01*
X2854Y4098D02*
X2854Y4348D01*
X3092Y4098D02*
X2973Y4098D01*
X2973Y4348D01*
X2717Y3819D02*
X2753Y3807D01*
X2765Y3795D01*
X2777Y3772D01*
X2777Y3736D01*
X2765Y3712D01*
X2753Y3700D01*
X2729Y3688D01*
X2634Y3688D01*
X2634Y3938D01*
X2717Y3938D01*
X2741Y3926D01*
X2753Y3915D01*
X2765Y3891D01*
X2765Y3867D01*
X2753Y3843D01*
X2741Y3831D01*
X2717Y3819D01*
X2634Y3819D01*
X285Y7122D02*
X273Y7110D01*
X238Y7098D01*
X214Y7098D01*
X178Y7110D01*
X154Y7134D01*
X142Y7158D01*
X130Y7205D01*
X130Y7241D01*
X142Y7289D01*
X154Y7313D01*
X178Y7336D01*
X214Y7348D01*
X238Y7348D01*
X273Y7336D01*
X285Y7325D01*
X440Y7348D02*
X488Y7348D01*
X511Y7336D01*
X535Y7313D01*
X547Y7265D01*
X547Y7182D01*
X535Y7134D01*
X511Y7110D01*
X488Y7098D01*
X440Y7098D01*
X416Y7110D01*
X392Y7134D01*
X380Y7182D01*
X380Y7265D01*
X392Y7313D01*
X416Y7336D01*
X440Y7348D01*
X654Y7098D02*
X654Y7348D01*
X892Y7098D02*
X773Y7098D01*
X773Y7348D01*
X440Y6760D02*
X559Y6760D01*
X416Y6688D02*
X500Y6938D01*
X583Y6688D01*
X12600Y1991D02*
X12650Y1975D01*
X12666Y1958D01*
X12683Y1925D01*
X12683Y1875D01*
X12666Y1841D01*
X12650Y1825D01*
X12616Y1808D01*
X12483Y1808D01*
X12483Y2158D01*
X12600Y2158D01*
X12633Y2141D01*
X12650Y2125D01*
X12666Y2091D01*
X12666Y2058D01*
X12650Y2025D01*
X12633Y2008D01*
X12600Y1991D01*
X12483Y1991D01*
X12400Y2250D02*
X12750Y2250D01*
X12466Y2933D02*
X12633Y2933D01*
X12433Y2833D02*
X12550Y3183D01*
X12666Y2833D01*
X12400Y3275D02*
X12700Y3275D01*
X12333Y4391D02*
X12300Y4408D01*
X12250Y4408D01*
X12200Y4391D01*
X12166Y4358D01*
X12150Y4325D01*
X12133Y4258D01*
X12133Y4208D01*
X12150Y4141D01*
X12166Y4108D01*
X12200Y4075D01*
X12250Y4058D01*
X12283Y4058D01*
X12333Y4075D01*
X12350Y4091D01*
X12350Y4208D01*
X12283Y4208D01*
X12500Y4058D02*
X12500Y4408D01*
X12700Y4058D01*
X12700Y4408D01*
X12866Y4058D02*
X12866Y4408D01*
X12950Y4408D01*
X13000Y4391D01*
X13033Y4358D01*
X13050Y4325D01*
X13066Y4258D01*
X13066Y4208D01*
X13050Y4141D01*
X13033Y4108D01*
X13000Y4075D01*
X12950Y4058D01*
X12866Y4058D01*
X9750Y5191D02*
X10016Y5191D01*
X9883Y5058D02*
X9883Y5325D01*
X10350Y5408D02*
X10183Y5408D01*
X10166Y5241D01*
X10183Y5258D01*
X10216Y5275D01*
X10300Y5275D01*
X10333Y5258D01*
X10350Y5241D01*
X10366Y5208D01*
X10366Y5125D01*
X10350Y5091D01*
X10333Y5075D01*
X10300Y5058D01*
X10216Y5058D01*
X10183Y5075D01*
X10166Y5091D01*
X10466Y5408D02*
X10583Y5058D01*
X10700Y5408D01*
X12275Y6191D02*
X12325Y6175D01*
X12341Y6158D01*
X12358Y6125D01*
X12358Y6075D01*
X12341Y6041D01*
X12325Y6025D01*
X12291Y6008D01*
X12158Y6008D01*
X12158Y6358D01*
X12275Y6358D01*
X12308Y6341D01*
X12325Y6325D01*
X12341Y6291D01*
X12341Y6258D01*
X12325Y6225D01*
X12308Y6208D01*
X12275Y6191D01*
X12158Y6191D01*
X10466Y7158D02*
X10633Y7158D01*
X10433Y7058D02*
X10550Y7408D01*
X10666Y7058D01*
G54D12*
X6650Y5400D02*
X6650Y5350D01*
X6650Y5350D02*
X8750Y5350D01*
X8750Y6850D02*
X6650Y6850D01*
X6650Y6850D02*
X6650Y5400D01*
X6650Y6300D02*
X6850Y6300D01*
X6850Y6300D02*
X6850Y5900D01*
X6850Y5900D02*
X6650Y5900D01*
X8750Y6850D02*
X8750Y5350D01*
G54D13*
X6303Y3655D02*
X10103Y3655D01*
X10103Y3655D02*
X10103Y2155D01*
X10103Y2155D02*
X6303Y2155D01*
X6303Y2155D02*
X6303Y3655D01*
X6303Y3155D02*
X6603Y3155D01*
X6603Y3155D02*
X6603Y2755D01*
X6603Y2755D02*
X6303Y2755D01*
G54D12*
X4400Y7250D02*
X4400Y6350D01*
X4400Y6350D02*
X5050Y6350D01*
X5750Y7250D02*
X6400Y7250D01*
X6400Y7250D02*
X6400Y6350D01*
X6400Y6350D02*
X5750Y6350D01*
X5050Y7250D02*
X4400Y7250D01*
X1400Y1250D02*
X1400Y350D01*
X1400Y350D02*
X2050Y350D01*
X2750Y1250D02*
X3400Y1250D01*
X3400Y1250D02*
X3400Y350D01*
X3400Y350D02*
X2750Y350D01*
X2050Y1250D02*
X1400Y1250D01*
X3500Y1250D02*
X3500Y350D01*
X3500Y350D02*
X4150Y350D01*
X4850Y1250D02*
X5500Y1250D01*
X5500Y1250D02*
X5500Y350D01*
X5500Y350D02*
X4850Y350D01*
X4150Y1250D02*
X3500Y1250D01*
X4054Y2421D02*
X4054Y1521D01*
X4054Y1521D02*
X4704Y1521D01*
X5404Y2421D02*
X6054Y2421D01*
X6054Y2421D02*
X6054Y1521D01*
X6054Y1521D02*
X5404Y1521D01*
X4704Y2421D02*
X4054Y2421D01*
X9800Y1250D02*
X9800Y350D01*
X9800Y350D02*
X10450Y350D01*
X11150Y1250D02*
X11800Y1250D01*
X11800Y1250D02*
X11800Y350D01*
X11800Y350D02*
X11150Y350D01*
X10450Y1250D02*
X9800Y1250D01*
X4054Y3602D02*
X4054Y2702D01*
X4054Y2702D02*
X4704Y2702D01*
X5404Y3602D02*
X6054Y3602D01*
X6054Y3602D02*
X6054Y2702D01*
X6054Y2702D02*
X5404Y2702D01*
X4704Y3602D02*
X4054Y3602D01*
X7600Y350D02*
X7600Y1250D01*
X7600Y1250D02*
X6950Y1250D01*
X6250Y350D02*
X5600Y350D01*
X5600Y350D02*
X5600Y1250D01*
X5600Y1250D02*
X6250Y1250D01*
X6950Y350D02*
X7600Y350D01*
X9700Y350D02*
X9700Y1250D01*
X9700Y1250D02*
X9050Y1250D01*
X8350Y350D02*
X7700Y350D01*
X7700Y350D02*
X7700Y1250D01*
X7700Y1250D02*
X8350Y1250D01*
X9050Y350D02*
X9700Y350D01*
X10700Y8850D02*
X10700Y9750D01*
X10700Y9750D02*
X10050Y9750D01*
X9350Y8850D02*
X8700Y8850D01*
X8700Y8850D02*
X8700Y9750D01*
X8700Y9750D02*
X9350Y9750D01*
X10050Y8850D02*
X10700Y8850D01*
X10700Y7850D02*
X10700Y8750D01*
X10700Y8750D02*
X10050Y8750D01*
X9350Y7850D02*
X8700Y7850D01*
X8700Y7850D02*
X8700Y8750D01*
X8700Y8750D02*
X9350Y8750D01*
X10050Y7850D02*
X10700Y7850D01*
X3500Y10250D02*
X3500Y11150D01*
X3500Y11150D02*
X2850Y11150D01*
X2150Y10250D02*
X1500Y10250D01*
X1500Y10250D02*
X1500Y11150D01*
X1500Y11150D02*
X2150Y11150D01*
X2850Y10250D02*
X3500Y10250D01*
X8000Y10250D02*
X8000Y11150D01*
X8000Y11150D02*
X7350Y11150D01*
X6650Y10250D02*
X6000Y10250D01*
X6000Y10250D02*
X6000Y11150D01*
X6000Y11150D02*
X6650Y11150D01*
X7350Y10250D02*
X8000Y10250D01*
X6200Y7850D02*
X6200Y8750D01*
X6200Y8750D02*
X5550Y8750D01*
X4850Y7850D02*
X4200Y7850D01*
X4200Y7850D02*
X4200Y8750D01*
X4200Y8750D02*
X4850Y8750D01*
X5550Y7850D02*
X6200Y7850D01*
X11000Y9750D02*
X11000Y8850D01*
X11000Y8850D02*
X11650Y8850D01*
X12350Y9750D02*
X13000Y9750D01*
X13000Y9750D02*
X13000Y8850D01*
X13000Y8850D02*
X12350Y8850D01*
X11650Y9750D02*
X11000Y9750D01*
X3700Y11150D02*
X3700Y10250D01*
X3700Y10250D02*
X4350Y10250D01*
X5050Y11150D02*
X5700Y11150D01*
X5700Y11150D02*
X5700Y10250D01*
X5700Y10250D02*
X5050Y10250D01*
X4350Y11150D02*
X3700Y11150D01*
G54D14*
X8900Y7700D02*
X9900Y7700D01*
X9900Y7700D02*
X9900Y5700D01*
X9900Y5700D02*
X8900Y5700D01*
X8900Y5700D02*
X8900Y7700D01*
X11200Y3500D02*
X12200Y3500D01*
X12200Y3500D02*
X12200Y1500D01*
X12200Y1500D02*
X11200Y1500D01*
X11200Y1500D02*
X11200Y3500D01*
X6400Y7800D02*
X6400Y8800D01*
X6400Y8800D02*
X8400Y8800D01*
X8400Y8800D02*
X8400Y7800D01*
X8400Y7800D02*
X6400Y7800D01*
G54D15*
X7675Y9875D02*
X7596Y9875D01*
X7596Y9875D02*
X7596Y9325D01*
X7675Y9325D02*
X7596Y9325D01*
X7675Y9875D02*
X7675Y9325D01*
G54D11*
X7793Y9325D02*
X7007Y9325D01*
X7007Y9325D02*
X7007Y9875D01*
X7007Y9875D02*
X7793Y9875D01*
X7793Y9875D02*
X7793Y9325D01*
X7596Y9600D02*
X7361Y9443D01*
X7361Y9443D02*
X7361Y9757D01*
X7361Y9757D02*
X7596Y9600D01*
G54D16*
X3794Y8231D02*
X3794Y9885D01*
X408Y8231D02*
X408Y9885D01*
X1315Y9887D02*
X415Y9887D01*
X415Y8229D02*
X1315Y8229D01*
X2888Y8229D02*
X3788Y8229D01*
X3787Y9887D02*
X2887Y9887D01*
X3794Y1538D02*
X3794Y3192D01*
X408Y1538D02*
X408Y3192D01*
X1315Y3194D02*
X415Y3194D01*
X415Y1536D02*
X1315Y1536D01*
X2888Y1536D02*
X3788Y1536D01*
X3787Y3194D02*
X2887Y3194D01*
G54D11*
X11081Y11288D02*
X11081Y11092D01*
X11081Y11288D02*
X8718Y11288D01*
X8718Y11288D02*
X8718Y11092D01*
X11081Y9911D02*
X11081Y10107D01*
X11081Y9911D02*
X8718Y9911D01*
X8718Y9911D02*
X8718Y10107D01*
G54D12*
X3700Y4800D02*
X3400Y5000D01*
X4400Y4800D02*
X3375Y4800D01*
X3375Y4800D02*
X3375Y5400D01*
X3375Y5400D02*
X4400Y5400D01*
X4400Y5400D02*
X4400Y4800D01*
X5600Y5400D02*
X5900Y5200D01*
X4900Y5400D02*
X5925Y5400D01*
X5925Y5400D02*
X5925Y4800D01*
X5925Y4800D02*
X4900Y4800D01*
X4900Y4800D02*
X4900Y5400D01*
X4200Y9950D02*
X4200Y9050D01*
X4200Y9050D02*
X4850Y9050D01*
X5550Y9950D02*
X6200Y9950D01*
X6200Y9950D02*
X6200Y9050D01*
X6200Y9050D02*
X5550Y9050D01*
X4850Y9950D02*
X4200Y9950D01*
X13000Y7850D02*
X13000Y8750D01*
X13000Y8750D02*
X12350Y8750D01*
X11650Y7850D02*
X11000Y7850D01*
X11000Y7850D02*
X11000Y8750D01*
X11000Y8750D02*
X11650Y8750D01*
X12350Y7850D02*
X13000Y7850D01*
G54D11*
X11400Y4200D02*
X12000Y4200D01*
X11400Y5200D02*
X10800Y5200D01*
X11400Y6200D02*
X12000Y6200D01*
X11400Y7200D02*
X10800Y7200D01*
X11650Y7700D02*
X11650Y3700D01*
X11650Y3700D02*
X11150Y3700D01*
X11150Y3700D02*
X11150Y7700D01*
X11150Y7700D02*
X11650Y7700D01*
X1600Y4200D02*
X2200Y4200D01*
X1600Y5200D02*
X1000Y5200D01*
X1600Y6200D02*
X2200Y6200D01*
X1600Y7200D02*
X1000Y7200D01*
X1850Y7700D02*
X1850Y3700D01*
X1850Y3700D02*
X1350Y3700D01*
X1350Y3700D02*
X1350Y7700D01*
X1350Y7700D02*
X1850Y7700D01*
X7509Y6598D02*
X7509Y6396D01*
X7521Y6372D01*
X7533Y6360D01*
X7557Y6348D01*
X7604Y6348D01*
X7628Y6360D01*
X7640Y6372D01*
X7652Y6396D01*
X7652Y6598D01*
X7902Y6348D02*
X7759Y6348D01*
X7830Y6348D02*
X7830Y6598D01*
X7807Y6563D01*
X7783Y6539D01*
X7759Y6527D01*
X7015Y5898D02*
X7015Y6148D01*
X7098Y5970D01*
X7182Y6148D01*
X7182Y5898D01*
X7289Y5910D02*
X7325Y5898D01*
X7384Y5898D01*
X7408Y5910D01*
X7420Y5922D01*
X7432Y5946D01*
X7432Y5970D01*
X7420Y5994D01*
X7408Y6005D01*
X7384Y6017D01*
X7336Y6029D01*
X7313Y6041D01*
X7301Y6053D01*
X7289Y6077D01*
X7289Y6101D01*
X7301Y6125D01*
X7313Y6136D01*
X7336Y6148D01*
X7396Y6148D01*
X7432Y6136D01*
X7539Y5898D02*
X7539Y6148D01*
X7634Y6148D01*
X7658Y6136D01*
X7670Y6125D01*
X7682Y6101D01*
X7682Y6065D01*
X7670Y6041D01*
X7658Y6029D01*
X7634Y6017D01*
X7539Y6017D01*
X7896Y6065D02*
X7896Y5898D01*
X7836Y6160D02*
X7777Y5982D01*
X7932Y5982D01*
X8003Y6148D02*
X8158Y6148D01*
X8075Y6053D01*
X8110Y6053D01*
X8134Y6041D01*
X8146Y6029D01*
X8158Y6005D01*
X8158Y5946D01*
X8146Y5922D01*
X8134Y5910D01*
X8110Y5898D01*
X8039Y5898D01*
X8015Y5910D01*
X8003Y5922D01*
X8313Y6148D02*
X8336Y6148D01*
X8360Y6136D01*
X8372Y6125D01*
X8384Y6101D01*
X8396Y6053D01*
X8396Y5994D01*
X8384Y5946D01*
X8372Y5922D01*
X8360Y5910D01*
X8336Y5898D01*
X8313Y5898D01*
X8289Y5910D01*
X8277Y5922D01*
X8265Y5946D01*
X8253Y5994D01*
X8253Y6053D01*
X8265Y6101D01*
X8277Y6125D01*
X8289Y6136D01*
X8313Y6148D01*
X8013Y3404D02*
X8013Y3202D01*
X8025Y3178D01*
X8037Y3166D01*
X8061Y3154D01*
X8108Y3154D01*
X8132Y3166D01*
X8144Y3178D01*
X8156Y3202D01*
X8156Y3404D01*
X8263Y3380D02*
X8275Y3392D01*
X8299Y3404D01*
X8358Y3404D01*
X8382Y3392D01*
X8394Y3380D01*
X8406Y3357D01*
X8406Y3333D01*
X8394Y3297D01*
X8251Y3154D01*
X8406Y3154D01*
X6932Y2948D02*
X7098Y2948D01*
X6991Y2698D01*
X7301Y2865D02*
X7301Y2698D01*
X7241Y2960D02*
X7182Y2782D01*
X7336Y2782D01*
X7420Y2770D02*
X7539Y2770D01*
X7396Y2698D02*
X7479Y2948D01*
X7563Y2698D01*
X7789Y2722D02*
X7777Y2710D01*
X7741Y2698D01*
X7717Y2698D01*
X7682Y2710D01*
X7658Y2734D01*
X7646Y2758D01*
X7634Y2805D01*
X7634Y2841D01*
X7646Y2889D01*
X7658Y2913D01*
X7682Y2936D01*
X7717Y2948D01*
X7741Y2948D01*
X7777Y2936D01*
X7789Y2925D01*
X7860Y2948D02*
X8003Y2948D01*
X7932Y2698D02*
X7932Y2948D01*
X8134Y2948D02*
X8158Y2948D01*
X8182Y2936D01*
X8194Y2925D01*
X8205Y2901D01*
X8217Y2853D01*
X8217Y2794D01*
X8205Y2746D01*
X8194Y2722D01*
X8182Y2710D01*
X8158Y2698D01*
X8134Y2698D01*
X8110Y2710D01*
X8098Y2722D01*
X8086Y2746D01*
X8075Y2794D01*
X8075Y2853D01*
X8086Y2901D01*
X8098Y2925D01*
X8110Y2936D01*
X8134Y2948D01*
X8432Y2865D02*
X8432Y2698D01*
X8372Y2960D02*
X8313Y2782D01*
X8467Y2782D01*
X5477Y6758D02*
X5489Y6746D01*
X5501Y6710D01*
X5501Y6686D01*
X5489Y6651D01*
X5465Y6627D01*
X5441Y6615D01*
X5394Y6603D01*
X5358Y6603D01*
X5310Y6615D01*
X5286Y6627D01*
X5263Y6651D01*
X5251Y6686D01*
X5251Y6710D01*
X5263Y6746D01*
X5275Y6758D01*
X5501Y6996D02*
X5501Y6853D01*
X5501Y6925D02*
X5251Y6925D01*
X5286Y6901D01*
X5310Y6877D01*
X5322Y6853D01*
X2477Y758D02*
X2489Y746D01*
X2501Y710D01*
X2501Y686D01*
X2489Y651D01*
X2465Y627D01*
X2441Y615D01*
X2394Y603D01*
X2358Y603D01*
X2310Y615D01*
X2286Y627D01*
X2263Y651D01*
X2251Y686D01*
X2251Y710D01*
X2263Y746D01*
X2275Y758D01*
X2334Y972D02*
X2501Y972D01*
X2239Y913D02*
X2417Y853D01*
X2417Y1008D01*
X4641Y319D02*
X4522Y235D01*
X4641Y176D02*
X4391Y176D01*
X4391Y271D01*
X4403Y295D01*
X4415Y307D01*
X4438Y319D01*
X4474Y319D01*
X4498Y307D01*
X4510Y295D01*
X4522Y271D01*
X4522Y176D01*
X4641Y557D02*
X4641Y414D01*
X4641Y485D02*
X4391Y485D01*
X4426Y462D01*
X4450Y438D01*
X4462Y414D01*
X4641Y795D02*
X4641Y652D01*
X4641Y724D02*
X4391Y724D01*
X4426Y700D01*
X4450Y676D01*
X4462Y652D01*
X5155Y1810D02*
X5036Y1727D01*
X5155Y1668D02*
X4905Y1668D01*
X4905Y1763D01*
X4917Y1787D01*
X4929Y1799D01*
X4953Y1810D01*
X4988Y1810D01*
X5012Y1799D01*
X5024Y1787D01*
X5036Y1763D01*
X5036Y1668D01*
X5155Y2049D02*
X5155Y1906D01*
X5155Y1977D02*
X4905Y1977D01*
X4941Y1953D01*
X4965Y1929D01*
X4976Y1906D01*
X4905Y2132D02*
X4905Y2287D01*
X5000Y2203D01*
X5000Y2239D01*
X5012Y2263D01*
X5024Y2275D01*
X5048Y2287D01*
X5107Y2287D01*
X5131Y2275D01*
X5143Y2263D01*
X5155Y2239D01*
X5155Y2168D01*
X5143Y2144D01*
X5131Y2132D01*
X10901Y658D02*
X10782Y575D01*
X10901Y515D02*
X10651Y515D01*
X10651Y610D01*
X10663Y634D01*
X10675Y646D01*
X10698Y658D01*
X10734Y658D01*
X10758Y646D01*
X10770Y634D01*
X10782Y610D01*
X10782Y515D01*
X10901Y777D02*
X10901Y825D01*
X10889Y848D01*
X10877Y860D01*
X10841Y884D01*
X10794Y896D01*
X10698Y896D01*
X10675Y884D01*
X10663Y872D01*
X10651Y848D01*
X10651Y801D01*
X10663Y777D01*
X10675Y765D01*
X10698Y753D01*
X10758Y753D01*
X10782Y765D01*
X10794Y777D01*
X10805Y801D01*
X10805Y848D01*
X10794Y872D01*
X10782Y884D01*
X10758Y896D01*
X5155Y3111D02*
X5036Y3027D01*
X5155Y2968D02*
X4905Y2968D01*
X4905Y3063D01*
X4917Y3087D01*
X4929Y3099D01*
X4953Y3111D01*
X4988Y3111D01*
X5012Y3099D01*
X5024Y3087D01*
X5036Y3063D01*
X5036Y2968D01*
X4905Y3194D02*
X4905Y3361D01*
X5155Y3253D01*
X6701Y878D02*
X6582Y795D01*
X6701Y735D02*
X6451Y735D01*
X6451Y830D01*
X6463Y854D01*
X6475Y866D01*
X6498Y878D01*
X6534Y878D01*
X6558Y866D01*
X6570Y854D01*
X6582Y830D01*
X6582Y735D01*
X6534Y1092D02*
X6701Y1092D01*
X6439Y1033D02*
X6617Y973D01*
X6617Y1128D01*
X8801Y658D02*
X8682Y575D01*
X8801Y515D02*
X8551Y515D01*
X8551Y610D01*
X8563Y634D01*
X8575Y646D01*
X8598Y658D01*
X8634Y658D01*
X8658Y646D01*
X8670Y634D01*
X8682Y610D01*
X8682Y515D01*
X8658Y801D02*
X8646Y777D01*
X8634Y765D01*
X8610Y753D01*
X8598Y753D01*
X8575Y765D01*
X8563Y777D01*
X8551Y801D01*
X8551Y848D01*
X8563Y872D01*
X8575Y884D01*
X8598Y896D01*
X8610Y896D01*
X8634Y884D01*
X8646Y872D01*
X8658Y848D01*
X8658Y801D01*
X8670Y777D01*
X8682Y765D01*
X8705Y753D01*
X8753Y753D01*
X8777Y765D01*
X8789Y777D01*
X8801Y801D01*
X8801Y848D01*
X8789Y872D01*
X8777Y884D01*
X8753Y896D01*
X8705Y896D01*
X8682Y884D01*
X8670Y872D01*
X8658Y848D01*
X9777Y9258D02*
X9789Y9246D01*
X9801Y9210D01*
X9801Y9186D01*
X9789Y9151D01*
X9765Y9127D01*
X9741Y9115D01*
X9694Y9103D01*
X9658Y9103D01*
X9610Y9115D01*
X9586Y9127D01*
X9563Y9151D01*
X9551Y9186D01*
X9551Y9210D01*
X9563Y9246D01*
X9575Y9258D01*
X9575Y9353D02*
X9563Y9365D01*
X9551Y9389D01*
X9551Y9448D01*
X9563Y9472D01*
X9575Y9484D01*
X9598Y9496D01*
X9622Y9496D01*
X9658Y9484D01*
X9801Y9341D01*
X9801Y9496D01*
X9801Y8258D02*
X9682Y8175D01*
X9801Y8115D02*
X9551Y8115D01*
X9551Y8210D01*
X9563Y8234D01*
X9575Y8246D01*
X9598Y8258D01*
X9634Y8258D01*
X9658Y8246D01*
X9670Y8234D01*
X9682Y8210D01*
X9682Y8115D01*
X9551Y8484D02*
X9551Y8365D01*
X9670Y8353D01*
X9658Y8365D01*
X9646Y8389D01*
X9646Y8448D01*
X9658Y8472D01*
X9670Y8484D01*
X9694Y8496D01*
X9753Y8496D01*
X9777Y8484D01*
X9789Y8472D01*
X9801Y8448D01*
X9801Y8389D01*
X9789Y8365D01*
X9777Y8353D01*
X2577Y10658D02*
X2589Y10646D01*
X2601Y10610D01*
X2601Y10586D01*
X2589Y10551D01*
X2565Y10527D01*
X2541Y10515D01*
X2494Y10503D01*
X2458Y10503D01*
X2410Y10515D01*
X2386Y10527D01*
X2363Y10551D01*
X2351Y10586D01*
X2351Y10610D01*
X2363Y10646D01*
X2375Y10658D01*
X2351Y10741D02*
X2351Y10896D01*
X2446Y10813D01*
X2446Y10848D01*
X2458Y10872D01*
X2470Y10884D01*
X2494Y10896D01*
X2553Y10896D01*
X2577Y10884D01*
X2589Y10872D01*
X2601Y10848D01*
X2601Y10777D01*
X2589Y10753D01*
X2577Y10741D01*
X7101Y10658D02*
X6982Y10575D01*
X7101Y10515D02*
X6851Y10515D01*
X6851Y10610D01*
X6863Y10634D01*
X6875Y10646D01*
X6898Y10658D01*
X6934Y10658D01*
X6958Y10646D01*
X6970Y10634D01*
X6982Y10610D01*
X6982Y10515D01*
X6851Y10741D02*
X6851Y10896D01*
X6946Y10813D01*
X6946Y10848D01*
X6958Y10872D01*
X6970Y10884D01*
X6994Y10896D01*
X7053Y10896D01*
X7077Y10884D01*
X7089Y10872D01*
X7101Y10848D01*
X7101Y10777D01*
X7089Y10753D01*
X7077Y10741D01*
X5301Y8258D02*
X5182Y8175D01*
X5301Y8115D02*
X5051Y8115D01*
X5051Y8210D01*
X5063Y8234D01*
X5075Y8246D01*
X5098Y8258D01*
X5134Y8258D01*
X5158Y8246D01*
X5170Y8234D01*
X5182Y8210D01*
X5182Y8115D01*
X5051Y8472D02*
X5051Y8425D01*
X5063Y8401D01*
X5075Y8389D01*
X5110Y8365D01*
X5158Y8353D01*
X5253Y8353D01*
X5277Y8365D01*
X5289Y8377D01*
X5301Y8401D01*
X5301Y8448D01*
X5289Y8472D01*
X5277Y8484D01*
X5253Y8496D01*
X5194Y8496D01*
X5170Y8484D01*
X5158Y8472D01*
X5146Y8448D01*
X5146Y8401D01*
X5158Y8377D01*
X5170Y8365D01*
X5194Y8353D01*
X12101Y9139D02*
X11982Y9055D01*
X12101Y8996D02*
X11851Y8996D01*
X11851Y9091D01*
X11863Y9115D01*
X11875Y9127D01*
X11898Y9139D01*
X11934Y9139D01*
X11958Y9127D01*
X11970Y9115D01*
X11982Y9091D01*
X11982Y8996D01*
X12101Y9377D02*
X12101Y9234D01*
X12101Y9305D02*
X11851Y9305D01*
X11886Y9282D01*
X11910Y9258D01*
X11922Y9234D01*
X11875Y9472D02*
X11863Y9484D01*
X11851Y9508D01*
X11851Y9567D01*
X11863Y9591D01*
X11875Y9603D01*
X11898Y9615D01*
X11922Y9615D01*
X11958Y9603D01*
X12101Y9460D01*
X12101Y9615D01*
X4801Y10539D02*
X4682Y10455D01*
X4801Y10396D02*
X4551Y10396D01*
X4551Y10491D01*
X4563Y10515D01*
X4575Y10527D01*
X4598Y10539D01*
X4634Y10539D01*
X4658Y10527D01*
X4670Y10515D01*
X4682Y10491D01*
X4682Y10396D01*
X4801Y10777D02*
X4801Y10634D01*
X4801Y10705D02*
X4551Y10705D01*
X4586Y10682D01*
X4610Y10658D01*
X4622Y10634D01*
X4551Y10932D02*
X4551Y10955D01*
X4563Y10979D01*
X4575Y10991D01*
X4598Y11003D01*
X4646Y11015D01*
X4705Y11015D01*
X4753Y11003D01*
X4777Y10991D01*
X4789Y10979D01*
X4801Y10955D01*
X4801Y10932D01*
X4789Y10908D01*
X4777Y10896D01*
X4753Y10884D01*
X4705Y10872D01*
X4646Y10872D01*
X4598Y10884D01*
X4575Y10896D01*
X4563Y10908D01*
X4551Y10932D01*
X8930Y5548D02*
X9085Y5548D01*
X9002Y5453D01*
X9038Y5453D01*
X9061Y5441D01*
X9073Y5429D01*
X9085Y5405D01*
X9085Y5346D01*
X9073Y5322D01*
X9061Y5310D01*
X9038Y5298D01*
X8966Y5298D01*
X8942Y5310D01*
X8930Y5322D01*
X9192Y5322D02*
X9204Y5310D01*
X9192Y5298D01*
X9180Y5310D01*
X9192Y5322D01*
X9192Y5298D01*
X9288Y5548D02*
X9442Y5548D01*
X9359Y5453D01*
X9395Y5453D01*
X9419Y5441D01*
X9430Y5429D01*
X9442Y5405D01*
X9442Y5346D01*
X9430Y5322D01*
X9419Y5310D01*
X9395Y5298D01*
X9323Y5298D01*
X9300Y5310D01*
X9288Y5322D01*
X9514Y5548D02*
X9597Y5298D01*
X9680Y5548D01*
X6953Y8907D02*
X6953Y9157D01*
X7048Y9157D01*
X7072Y9145D01*
X7084Y9133D01*
X7096Y9109D01*
X7096Y9074D01*
X7084Y9050D01*
X7072Y9038D01*
X7048Y9026D01*
X6953Y9026D01*
X7346Y8907D02*
X7263Y9026D01*
X7203Y8907D02*
X7203Y9157D01*
X7298Y9157D01*
X7322Y9145D01*
X7334Y9133D01*
X7346Y9109D01*
X7346Y9074D01*
X7334Y9050D01*
X7322Y9038D01*
X7298Y9026D01*
X7203Y9026D01*
X7501Y9157D02*
X7548Y9157D01*
X7572Y9145D01*
X7596Y9121D01*
X7608Y9074D01*
X7608Y8990D01*
X7596Y8943D01*
X7572Y8919D01*
X7548Y8907D01*
X7501Y8907D01*
X7477Y8919D01*
X7453Y8943D01*
X7441Y8990D01*
X7441Y9074D01*
X7453Y9121D01*
X7477Y9145D01*
X7501Y9157D01*
X7846Y9145D02*
X7822Y9157D01*
X7786Y9157D01*
X7751Y9145D01*
X7727Y9121D01*
X7715Y9097D01*
X7703Y9050D01*
X7703Y9014D01*
X7715Y8966D01*
X7727Y8943D01*
X7751Y8919D01*
X7786Y8907D01*
X7810Y8907D01*
X7846Y8919D01*
X7858Y8931D01*
X7858Y9014D01*
X7810Y9014D01*
X10615Y1178D02*
X10615Y1428D01*
X10675Y1428D01*
X10710Y1416D01*
X10734Y1393D01*
X10746Y1369D01*
X10758Y1321D01*
X10758Y1285D01*
X10746Y1238D01*
X10734Y1214D01*
X10710Y1190D01*
X10675Y1178D01*
X10615Y1178D01*
X10972Y1345D02*
X10972Y1178D01*
X10913Y1440D02*
X10853Y1262D01*
X11008Y1262D01*
X2206Y9044D02*
X2087Y8960D01*
X2206Y8901D02*
X1956Y8901D01*
X1956Y8996D01*
X1968Y9020D01*
X1980Y9032D01*
X2004Y9044D01*
X2040Y9044D01*
X2063Y9032D01*
X2075Y9020D01*
X2087Y8996D01*
X2087Y8901D01*
X2206Y9282D02*
X2206Y9139D01*
X2206Y9210D02*
X1956Y9210D01*
X1992Y9187D01*
X2016Y9163D01*
X2028Y9139D01*
X2206Y2351D02*
X2087Y2267D01*
X2206Y2208D02*
X1956Y2208D01*
X1956Y2303D01*
X1968Y2327D01*
X1980Y2339D01*
X2004Y2351D01*
X2040Y2351D01*
X2063Y2339D01*
X2075Y2327D01*
X2087Y2303D01*
X2087Y2208D01*
X1980Y2446D02*
X1968Y2458D01*
X1956Y2482D01*
X1956Y2541D01*
X1968Y2565D01*
X1980Y2577D01*
X2004Y2589D01*
X2028Y2589D01*
X2063Y2577D01*
X2206Y2434D01*
X2206Y2589D01*
X3291Y4925D02*
X3041Y4925D01*
X3041Y4985D01*
X3053Y5020D01*
X3076Y5044D01*
X3100Y5056D01*
X3148Y5068D01*
X3184Y5068D01*
X3231Y5056D01*
X3255Y5044D01*
X3279Y5020D01*
X3291Y4985D01*
X3291Y4925D01*
X3065Y5163D02*
X3053Y5175D01*
X3041Y5199D01*
X3041Y5258D01*
X3053Y5282D01*
X3065Y5294D01*
X3088Y5306D01*
X3112Y5306D01*
X3148Y5294D01*
X3291Y5151D01*
X3291Y5306D01*
X6301Y4915D02*
X6051Y4915D01*
X6051Y4975D01*
X6063Y5010D01*
X6086Y5034D01*
X6110Y5046D01*
X6158Y5058D01*
X6194Y5058D01*
X6241Y5046D01*
X6265Y5034D01*
X6289Y5010D01*
X6301Y4975D01*
X6301Y4915D01*
X6301Y5296D02*
X6301Y5153D01*
X6301Y5225D02*
X6051Y5225D01*
X6086Y5201D01*
X6110Y5177D01*
X6122Y5153D01*
X5301Y9339D02*
X5182Y9255D01*
X5301Y9196D02*
X5051Y9196D01*
X5051Y9291D01*
X5063Y9315D01*
X5075Y9327D01*
X5098Y9339D01*
X5134Y9339D01*
X5158Y9327D01*
X5170Y9315D01*
X5182Y9291D01*
X5182Y9196D01*
X5301Y9577D02*
X5301Y9434D01*
X5301Y9505D02*
X5051Y9505D01*
X5086Y9482D01*
X5110Y9458D01*
X5122Y9434D01*
X5134Y9791D02*
X5301Y9791D01*
X5039Y9732D02*
X5217Y9672D01*
X5217Y9827D01*
X12077Y8258D02*
X12089Y8246D01*
X12101Y8210D01*
X12101Y8186D01*
X12089Y8151D01*
X12065Y8127D01*
X12041Y8115D01*
X11994Y8103D01*
X11958Y8103D01*
X11910Y8115D01*
X11886Y8127D01*
X11863Y8151D01*
X11851Y8186D01*
X11851Y8210D01*
X11863Y8246D01*
X11875Y8258D01*
X11851Y8484D02*
X11851Y8365D01*
X11970Y8353D01*
X11958Y8365D01*
X11946Y8389D01*
X11946Y8448D01*
X11958Y8472D01*
X11970Y8484D01*
X11994Y8496D01*
X12053Y8496D01*
X12077Y8484D01*
X12089Y8472D01*
X12101Y8448D01*
X12101Y8389D01*
X12089Y8365D01*
X12077Y8353D01*
%LPC*%
G54D17*
X6950Y7150D03*
X6950Y5050D03*
X7450Y7150D03*
X7950Y7150D03*
X8450Y7150D03*
X7450Y5050D03*
X7950Y5050D03*
X8450Y5050D03*
G54D18*
X6703Y1855D03*
X7203Y1855D03*
X7703Y1855D03*
X8203Y1855D03*
X8703Y1855D03*
X9203Y1855D03*
X9703Y1855D03*
X9703Y3955D03*
X9203Y3955D03*
X8703Y3955D03*
X8203Y3955D03*
X7703Y3955D03*
X7203Y3955D03*
X6703Y3955D03*
G54D19*
X4750Y6800D03*
X6050Y6800D03*
X1750Y800D03*
X3050Y800D03*
X3850Y800D03*
X5150Y800D03*
X4404Y1971D03*
X5704Y1971D03*
X10150Y800D03*
X11450Y800D03*
X4404Y3152D03*
X5704Y3152D03*
X7250Y800D03*
X5950Y800D03*
X9350Y800D03*
X8050Y800D03*
X10350Y9300D03*
X9050Y9300D03*
X10350Y8300D03*
X9050Y8300D03*
X3150Y10700D03*
X1850Y10700D03*
X7650Y10700D03*
X6350Y10700D03*
X5850Y8300D03*
X4550Y8300D03*
X11350Y9300D03*
X12650Y9300D03*
X4050Y10700D03*
X5350Y10700D03*
G54D20*
X9400Y7200D03*
G54D21*
X9400Y6200D03*
G54D20*
X11700Y3000D03*
G54D21*
X11700Y2000D03*
G54D20*
X6900Y8300D03*
G54D21*
X7900Y8300D03*
G54D22*
X10412Y2554D03*
X10412Y1845D03*
X10787Y1845D03*
X10787Y2554D03*
G54D23*
X6830Y9600D03*
X7970Y9600D03*
G54D24*
X3282Y9058D03*
X920Y9058D03*
X3282Y2365D03*
X920Y2365D03*
G54D25*
X10844Y10600D03*
X8955Y10600D03*
G54D26*
X3525Y5600D03*
X3900Y5600D03*
X4275Y5600D03*
X4275Y4600D03*
X3900Y4600D03*
X3525Y4600D03*
X5775Y4600D03*
X5400Y4600D03*
X5025Y4600D03*
X5025Y5600D03*
X5400Y5600D03*
X5775Y5600D03*
G54D19*
X4550Y9500D03*
X5850Y9500D03*
X12650Y8300D03*
X11350Y8300D03*
G54D27*
X600Y10900D03*
X12600Y10900D03*
X12600Y600D03*
X600Y600D03*
G54D28*
X10754Y4200D03*
X12045Y5200D03*
X12045Y7200D03*
X10754Y6200D03*
X954Y4200D03*
X2245Y5200D03*
X2245Y7200D03*
X954Y6200D03*
M02*
