G04 (created by PCBNEW (2013-03-31 BZR 4008)-stable) date 4/4/2013 9:15:26 PM*
%MOIN*%
G04 Gerber Fmt 3.4, Leading zero omitted, Abs format*
%FSLAX34Y34*%
G01*
G70*
G90*
G04 APERTURE LIST*
%ADD10C,0.000393701*%
%ADD11R,0.0236X0.0551*%
%ADD12R,0.02X0.045*%
%ADD13R,0.06X0.08*%
%ADD14R,0.055X0.055*%
%ADD15C,0.055*%
%ADD16R,0.023622X0.0472441*%
%ADD17R,0.059X0.0472*%
%ADD18R,0.0787X0.1181*%
%ADD19R,0.110236X0.0866142*%
%ADD20R,0.0216535X0.0314961*%
%ADD21C,0.08*%
%ADD22R,0.116535X0.05*%
%ADD23C,0.035*%
%ADD24C,0.01*%
%ADD25C,0.05*%
%ADD26C,0.02*%
G04 APERTURE END LIST*
G54D10*
G54D11*
X6950Y7150D03*
X6950Y5050D03*
X7450Y7150D03*
X7950Y7150D03*
X8450Y7150D03*
X7450Y5050D03*
X7950Y5050D03*
X8450Y5050D03*
G54D12*
X6703Y1855D03*
X7203Y1855D03*
X7703Y1855D03*
X8203Y1855D03*
X8703Y1855D03*
X9203Y1855D03*
X9703Y1855D03*
X9703Y3955D03*
X9203Y3955D03*
X8703Y3955D03*
X8203Y3955D03*
X7703Y3955D03*
X7203Y3955D03*
X6703Y3955D03*
G54D13*
X4750Y6800D03*
X6050Y6800D03*
X1750Y800D03*
X3050Y800D03*
X3850Y800D03*
X5150Y800D03*
X4404Y1971D03*
X5704Y1971D03*
X10150Y800D03*
X11450Y800D03*
X4404Y3152D03*
X5704Y3152D03*
X7250Y800D03*
X5950Y800D03*
X9350Y800D03*
X8050Y800D03*
X10350Y9300D03*
X9050Y9300D03*
X10350Y8300D03*
X9050Y8300D03*
X3150Y10700D03*
X1850Y10700D03*
X7650Y10700D03*
X6350Y10700D03*
X5850Y8300D03*
X4550Y8300D03*
X11350Y9300D03*
X12650Y9300D03*
X4050Y10700D03*
X5350Y10700D03*
G54D14*
X9400Y7200D03*
G54D15*
X9400Y6200D03*
G54D14*
X11700Y3000D03*
G54D15*
X11700Y2000D03*
G54D14*
X6900Y8300D03*
G54D15*
X7900Y8300D03*
G54D16*
X10412Y2554D03*
X10412Y1845D03*
X10787Y1845D03*
X10787Y2554D03*
G54D17*
X6830Y9600D03*
X7970Y9600D03*
G54D18*
X3282Y9058D03*
X920Y9058D03*
X3282Y2365D03*
X920Y2365D03*
G54D19*
X10844Y10600D03*
X8955Y10600D03*
G54D20*
X3525Y5600D03*
X3900Y5600D03*
X4275Y5600D03*
X4275Y4600D03*
X3900Y4600D03*
X3525Y4600D03*
X5775Y4600D03*
X5400Y4600D03*
X5025Y4600D03*
X5025Y5600D03*
X5400Y5600D03*
X5775Y5600D03*
G54D13*
X4550Y9500D03*
X5850Y9500D03*
X12650Y8300D03*
X11350Y8300D03*
G54D21*
X600Y10900D03*
X12600Y10900D03*
X12600Y600D03*
X600Y600D03*
G54D22*
X10754Y4200D03*
X12045Y5200D03*
X12045Y7200D03*
X10754Y6200D03*
X954Y4200D03*
X2245Y5200D03*
X2245Y7200D03*
X954Y6200D03*
G54D23*
X6600Y400D03*
X11700Y4200D03*
X6300Y4500D03*
X1200Y4900D03*
X4898Y4166D03*
X8700Y1200D03*
X4250Y3900D03*
X5400Y6050D03*
X3500Y6850D03*
X11970Y7860D03*
X3810Y3360D03*
X3500Y6200D03*
X4690Y5140D03*
X7238Y4483D03*
X4166Y6465D03*
X4500Y990D03*
X3963Y9492D03*
X7950Y5608D03*
X8416Y6584D03*
X7572Y2361D03*
X8971Y2746D03*
X10700Y3300D03*
X8716Y2358D03*
X8982Y3449D03*
X10210Y3349D03*
X9296Y2361D03*
X7904Y4491D03*
X11176Y7385D03*
X5200Y7600D03*
X12750Y6500D03*
G54D24*
X6600Y800D02*
X6600Y400D01*
X7250Y800D02*
X6600Y800D01*
G54D25*
X10754Y4200D02*
X11700Y4200D01*
X6300Y4500D02*
X6300Y5500D01*
X6300Y6550D02*
X6050Y6800D01*
X6300Y5500D02*
X6300Y6550D01*
X1254Y4954D02*
X1200Y5070D01*
X1200Y4900D02*
X1254Y4954D01*
X1000Y5500D02*
X954Y6200D01*
X1200Y5070D02*
X1000Y5500D01*
X1200Y4900D02*
X1200Y5070D01*
G54D24*
X7650Y10700D02*
X7650Y10424D01*
G54D26*
X5775Y5500D02*
X5875Y5500D01*
X5875Y5500D02*
X6300Y5500D01*
G54D24*
X5875Y5500D02*
X5775Y5600D01*
X9703Y1855D02*
X9703Y1603D01*
G54D26*
X6600Y6800D02*
X6950Y7150D01*
X6050Y6800D02*
X6600Y6800D01*
G54D25*
X1200Y5200D02*
X2245Y5200D01*
X1200Y5070D02*
X1200Y5200D01*
G54D24*
X5025Y4600D02*
X5025Y4292D01*
X8119Y10424D02*
X7650Y10424D01*
X8294Y10600D02*
X8119Y10424D01*
X8837Y10600D02*
X8294Y10600D01*
X5025Y4292D02*
X4898Y4166D01*
X8837Y10600D02*
X8955Y10600D01*
X8955Y9945D02*
X9050Y9850D01*
X8955Y10600D02*
X8955Y9945D01*
X9050Y9300D02*
X9050Y9850D01*
X11731Y9850D02*
X9050Y9850D01*
X11800Y9781D02*
X11731Y9850D01*
X11800Y8300D02*
X11800Y9781D01*
X11350Y8300D02*
X11800Y8300D01*
X7150Y10149D02*
X7650Y10424D01*
X6993Y10149D02*
X7150Y10149D01*
X6830Y9986D02*
X6993Y10149D01*
X6830Y9600D02*
X6830Y9986D01*
X6474Y7625D02*
X6950Y7150D01*
X6474Y8774D02*
X6474Y7625D01*
X6830Y9130D02*
X6474Y8774D01*
X6830Y9600D02*
X6830Y9130D01*
X8700Y1300D02*
X8700Y1200D01*
X8800Y1400D02*
X8700Y1300D01*
X9500Y1400D02*
X8800Y1400D01*
X9703Y1603D02*
X9500Y1400D01*
X7199Y7575D02*
X7450Y7575D01*
X6900Y7874D02*
X7199Y7575D01*
X6900Y8300D02*
X6900Y7874D01*
X7450Y7150D02*
X7450Y7575D01*
X3723Y790D02*
X3386Y795D01*
X3386Y795D02*
X3050Y800D01*
X3395Y795D02*
X3399Y800D01*
X3386Y795D02*
X3395Y795D01*
X3850Y800D02*
X3399Y800D01*
G54D26*
X3282Y9058D02*
X3282Y8167D01*
X5400Y6050D02*
X5400Y5600D01*
X3500Y7850D02*
X3500Y6850D01*
X3282Y8167D02*
X3500Y7850D01*
X3282Y2365D02*
X3282Y3282D01*
X3282Y3282D02*
X3400Y3700D01*
X3400Y3700D02*
X3795Y3848D01*
X3795Y3848D02*
X4250Y3900D01*
X4250Y3900D02*
X4670Y3799D01*
X4670Y3799D02*
X5100Y3800D01*
X5100Y3800D02*
X5400Y4100D01*
X5400Y4100D02*
X5400Y4600D01*
G54D24*
X12650Y8300D02*
X12650Y9300D01*
X12650Y8300D02*
X12199Y8300D01*
X12199Y8236D02*
X11970Y7860D01*
X12199Y8300D02*
X12199Y8236D01*
X7950Y8250D02*
X7950Y7150D01*
X7900Y8300D02*
X7950Y8250D01*
X4050Y10700D02*
X3150Y10700D01*
X11350Y9300D02*
X10350Y9300D01*
X9899Y8699D02*
X9500Y8300D01*
X9899Y9300D02*
X9899Y8699D01*
X10350Y9300D02*
X9899Y9300D01*
X9050Y8300D02*
X9500Y8300D01*
X8599Y8584D02*
X8599Y8300D01*
X7970Y9213D02*
X8599Y8584D01*
X7970Y9600D02*
X7970Y9213D01*
X9050Y8300D02*
X8834Y8300D01*
X8834Y8300D02*
X8599Y8300D01*
X7628Y6153D02*
X6950Y5475D01*
X8446Y6153D02*
X7628Y6153D01*
X8834Y6540D02*
X8446Y6153D01*
X8834Y8300D02*
X8834Y6540D01*
X6950Y5050D02*
X6950Y5475D01*
G54D26*
X1809Y859D02*
X1750Y800D01*
X920Y2365D02*
X1809Y859D01*
G54D25*
X954Y2399D02*
X920Y2365D01*
X954Y4200D02*
X954Y2399D01*
G54D26*
X850Y9128D02*
X920Y9058D01*
X1850Y10700D02*
X850Y9128D01*
G54D25*
X920Y8525D02*
X2245Y7200D01*
X920Y9058D02*
X920Y8525D01*
G54D24*
X4550Y8300D02*
X5000Y8300D01*
X5704Y2602D02*
X5704Y2216D01*
X5704Y2216D02*
X5704Y1971D01*
X3525Y5600D02*
X3525Y5907D01*
X3954Y3078D02*
X3810Y3360D01*
X3954Y2673D02*
X3954Y3078D01*
X4105Y2521D02*
X3954Y2673D01*
X5398Y2521D02*
X4105Y2521D01*
X5704Y2216D02*
X5398Y2521D01*
X4550Y8300D02*
X4550Y7749D01*
X3531Y5907D02*
X3500Y6200D01*
X3525Y5907D02*
X3531Y5907D01*
X4199Y7399D02*
X4550Y7749D01*
X3850Y6700D02*
X4199Y7399D01*
X3800Y6200D02*
X3831Y6231D01*
X3831Y6231D02*
X3850Y6700D01*
X3500Y6200D02*
X3800Y6200D01*
X10844Y10600D02*
X10844Y11183D01*
X10777Y11250D02*
X10844Y11183D01*
X7265Y11250D02*
X10777Y11250D01*
X6800Y10784D02*
X7265Y11250D01*
X6800Y10700D02*
X6800Y10784D01*
X5000Y8384D02*
X5000Y8300D01*
X5565Y8949D02*
X5000Y8384D01*
X6226Y8949D02*
X5565Y8949D01*
X6350Y9073D02*
X6226Y8949D01*
X6350Y10700D02*
X6350Y9073D01*
X6350Y10700D02*
X6800Y10700D01*
X10787Y1387D02*
X10787Y1845D01*
X10200Y800D02*
X10787Y1387D01*
X10150Y800D02*
X10200Y800D01*
X5350Y10700D02*
X4899Y10700D01*
X3525Y4600D02*
X3641Y4600D01*
X7450Y5050D02*
X7450Y4624D01*
X3825Y4600D02*
X3641Y4600D01*
X3825Y4600D02*
X3851Y4600D01*
X3900Y4600D02*
X3875Y4600D01*
X3875Y4600D02*
X3851Y4600D01*
X4211Y5259D02*
X4544Y4926D01*
X3350Y5259D02*
X4211Y5259D01*
X3182Y5428D02*
X3350Y5259D01*
X3182Y7725D02*
X3182Y5428D01*
X2737Y8170D02*
X3182Y7725D01*
X2737Y9710D02*
X2737Y8170D01*
X3077Y10050D02*
X2737Y9710D01*
X4334Y10050D02*
X3077Y10050D01*
X4899Y10615D02*
X4334Y10050D01*
X4899Y10700D02*
X4899Y10615D01*
X4541Y5140D02*
X4690Y5140D01*
X4544Y4926D02*
X4541Y5140D01*
X4404Y1971D02*
X3954Y1971D01*
X3875Y4426D02*
X4009Y4292D01*
X3875Y4600D02*
X3875Y4426D01*
X4446Y4292D02*
X4009Y4292D01*
X4544Y4389D02*
X4446Y4292D01*
X4544Y4926D02*
X4544Y4389D01*
X3954Y1798D02*
X3954Y1971D01*
X3780Y1624D02*
X3954Y1798D01*
X2815Y1624D02*
X3780Y1624D01*
X2738Y1701D02*
X2815Y1624D01*
X2738Y3021D02*
X2738Y1701D01*
X4009Y4292D02*
X3000Y4000D01*
X3000Y4000D02*
X2738Y3021D01*
X7379Y4624D02*
X7450Y4624D01*
X7238Y4483D02*
X7379Y4624D01*
X4275Y5600D02*
X4146Y5600D01*
X4146Y5600D02*
X3900Y5600D01*
X4509Y990D02*
X4699Y800D01*
X4500Y990D02*
X4509Y990D01*
X5150Y800D02*
X4699Y800D01*
X4146Y6444D02*
X4166Y6465D01*
X4146Y5600D02*
X4146Y6444D01*
X4092Y9492D02*
X4099Y9500D01*
X3963Y9492D02*
X4092Y9492D01*
X4550Y9500D02*
X4099Y9500D01*
X7950Y5608D02*
X7950Y5050D01*
X5704Y3152D02*
X5704Y2948D01*
X5704Y2948D02*
X5704Y2602D01*
X6005Y1350D02*
X5950Y1350D01*
X6172Y1516D02*
X6005Y1350D01*
X6172Y2480D02*
X6172Y1516D01*
X5704Y2948D02*
X6172Y2480D01*
X5950Y800D02*
X5950Y1350D01*
X4275Y4600D02*
X4275Y4907D01*
X4275Y4907D02*
X3343Y4907D01*
X2807Y1350D02*
X5950Y1350D01*
X2530Y1627D02*
X2807Y1350D01*
X2530Y4094D02*
X2530Y1627D01*
X3343Y4907D02*
X2530Y4094D01*
X2982Y5268D02*
X3343Y4907D01*
X2982Y7642D02*
X2982Y5268D01*
X2537Y8087D02*
X2982Y7642D01*
X2537Y11009D02*
X2537Y8087D01*
X2778Y11250D02*
X2537Y11009D01*
X5721Y11250D02*
X2778Y11250D01*
X5850Y11121D02*
X5721Y11250D01*
X5850Y9500D02*
X5850Y11121D01*
X8450Y7150D02*
X8450Y6724D01*
X8416Y6690D02*
X8450Y6724D01*
X8416Y6584D02*
X8416Y6690D01*
X7678Y2231D02*
X7572Y2231D01*
X7703Y2206D02*
X7678Y2231D01*
X7703Y1855D02*
X7703Y2206D01*
X6703Y1921D02*
X6703Y1855D01*
X7013Y2231D02*
X6703Y1921D01*
X7572Y2231D02*
X7013Y2231D01*
X7572Y2361D02*
X7572Y2231D01*
X9400Y7200D02*
X9400Y6774D01*
X9369Y6774D02*
X9400Y6774D01*
X8450Y5855D02*
X9369Y6774D01*
X8450Y5475D02*
X8450Y5855D01*
X8450Y5053D02*
X8450Y5475D01*
X8450Y5053D02*
X8450Y5050D01*
X8203Y3955D02*
X8203Y4331D01*
X9203Y3955D02*
X9203Y4331D01*
X8957Y4577D02*
X9203Y4331D01*
X8450Y4577D02*
X8957Y4577D01*
X8450Y5050D02*
X8450Y4577D01*
X8450Y4577D02*
X8203Y4331D01*
X7057Y2746D02*
X8971Y2746D01*
X6453Y2143D02*
X7057Y2746D01*
X6453Y1563D02*
X6453Y2143D01*
X6536Y1480D02*
X6453Y1563D01*
X7203Y1480D02*
X6536Y1480D01*
X7203Y1855D02*
X7203Y1480D01*
X10787Y2940D02*
X10700Y3300D01*
X10787Y2554D02*
X10787Y2940D01*
X8703Y1855D02*
X8703Y2231D01*
X8416Y2231D02*
X8703Y2231D01*
X8203Y2018D02*
X8416Y2231D01*
X8203Y1855D02*
X8203Y2018D01*
X8703Y2346D02*
X8716Y2358D01*
X8703Y2231D02*
X8703Y2346D01*
X10300Y1400D02*
X10412Y1512D01*
X10412Y1512D02*
X10412Y1845D01*
X9350Y967D02*
X9782Y1400D01*
X9350Y800D02*
X9350Y967D01*
X9782Y1400D02*
X10300Y1400D01*
X10412Y2940D02*
X10412Y2554D01*
X10160Y2940D02*
X10412Y2940D01*
X9703Y3397D02*
X10160Y2940D01*
X9703Y3955D02*
X9703Y3397D01*
X8703Y3955D02*
X8703Y3580D01*
X7203Y3580D02*
X8703Y3580D01*
X7203Y3955D02*
X7203Y3580D01*
X8835Y3449D02*
X8982Y3449D01*
X8703Y3580D02*
X8835Y3449D01*
X9203Y2269D02*
X9296Y2361D01*
X9203Y1855D02*
X9203Y2269D01*
X10021Y3539D02*
X10210Y3349D01*
X10021Y6200D02*
X10021Y3539D01*
X10754Y6200D02*
X10021Y6200D01*
X7743Y4331D02*
X7904Y4491D01*
X7703Y4331D02*
X7743Y4331D01*
X12045Y7200D02*
X11312Y7200D01*
X11312Y7248D02*
X11312Y7200D01*
X11176Y7385D02*
X11312Y7248D01*
X7703Y3955D02*
X7703Y4331D01*
X10800Y200D02*
X11450Y800D01*
X8200Y200D02*
X10800Y200D01*
X8050Y250D02*
X8200Y200D01*
X11500Y800D02*
X12700Y2000D01*
X11450Y800D02*
X11500Y800D01*
X12700Y2000D02*
X12700Y4545D01*
X8050Y800D02*
X8050Y250D01*
X12700Y4545D02*
X12045Y5200D01*
G54D26*
X4750Y6250D02*
X4750Y6800D01*
X5025Y5975D02*
X4750Y6250D01*
X5025Y5600D02*
X5025Y5975D01*
G54D25*
X5200Y7250D02*
X4750Y6800D01*
X5200Y7600D02*
X5200Y7250D01*
G54D24*
X5850Y7749D02*
X5850Y8300D01*
X5349Y7749D02*
X5850Y7749D01*
X5200Y7600D02*
X5349Y7749D01*
G54D26*
X5025Y5275D02*
X5025Y5600D01*
X5150Y5150D02*
X5025Y5275D01*
X5575Y5150D02*
X5150Y5150D01*
X5775Y4950D02*
X5575Y5150D01*
X5775Y4600D02*
X5775Y4950D01*
G54D24*
X5775Y4600D02*
X5775Y4292D01*
X5775Y4292D02*
X5775Y4145D01*
X4854Y3225D02*
X5775Y4145D01*
X4854Y3152D02*
X4854Y3225D01*
X5964Y3955D02*
X6703Y3955D01*
X5775Y4145D02*
X5964Y3955D01*
X4404Y3152D02*
X4854Y3152D01*
G54D25*
X12045Y5845D02*
X12109Y5905D01*
X12045Y5200D02*
X12045Y5845D01*
X12109Y5905D02*
X12750Y6500D01*
G54D24*
X12109Y5990D02*
X12109Y5905D01*
X10350Y7749D02*
X12109Y5990D01*
X10350Y8300D02*
X10350Y7749D01*
M02*
