M48
;DRILL file {Pcbnew (2013-03-31 BZR 4008)-stable} date 4/4/2013 9:15:28 PM
;FORMAT={-:-/ absolute / inch / decimal}
FMAT,2
INCH,TZ
T1C0.025
T2C0.032
T3C0.065
%
G90
G05
M72
T1
X0.12Y0.49
X0.35Y0.685
X0.35Y0.62
X0.381Y0.336
X0.3963Y0.9493
X0.4167Y0.6466
X0.425Y0.39
X0.45Y0.099
X0.469Y0.514
X0.4899Y0.4166
X0.52Y0.76
X0.54Y0.605
X0.63Y0.45
X0.66Y0.04
X0.7238Y0.4483
X0.7572Y0.2362
X0.7905Y0.4492
X0.795Y0.5608
X0.8416Y0.6584
X0.87Y0.12
X0.8716Y0.2359
X0.8971Y0.2746
X0.8983Y0.3449
X0.9297Y0.2362
X1.0211Y0.335
X1.07Y0.33
X1.1176Y0.7385
X1.17Y0.42
X1.197Y0.786
X1.275Y0.65
T2
X0.69Y0.83
X0.79Y0.83
X0.94Y0.72
X0.94Y0.62
X1.17Y0.3
X1.17Y0.2
T3
X0.06Y1.09
X0.06Y0.06
X1.26Y1.09
X1.26Y0.06
T0
M30
