G04 (created by PCBNEW (2013-03-31 BZR 4008)-stable) date 4/4/2013 9:15:26 PM*
%MOIN*%
G04 Gerber Fmt 3.4, Leading zero omitted, Abs format*
%FSLAX34Y34*%
G01*
G70*
G90*
G04 APERTURE LIST*
%ADD10C,0.000393701*%
%ADD11R,0.031474X0.062974*%
%ADD12R,0.027874X0.052874*%
%ADD13R,0.067874X0.087874*%
%ADD14R,0.062874X0.062874*%
%ADD15C,0.062874*%
%ADD16R,0.0314961X0.0551181*%
%ADD17R,0.066874X0.055074*%
%ADD18R,0.086574X0.125974*%
%ADD19R,0.11811X0.0944882*%
%ADD20R,0.0295276X0.0393701*%
%ADD21C,0.087874*%
%ADD22R,0.124409X0.057874*%
G04 APERTURE END LIST*
G54D10*
G54D11*
X6950Y7150D03*
X6950Y5050D03*
X7450Y7150D03*
X7950Y7150D03*
X8450Y7150D03*
X7450Y5050D03*
X7950Y5050D03*
X8450Y5050D03*
G54D12*
X6703Y1855D03*
X7203Y1855D03*
X7703Y1855D03*
X8203Y1855D03*
X8703Y1855D03*
X9203Y1855D03*
X9703Y1855D03*
X9703Y3955D03*
X9203Y3955D03*
X8703Y3955D03*
X8203Y3955D03*
X7703Y3955D03*
X7203Y3955D03*
X6703Y3955D03*
G54D13*
X4750Y6800D03*
X6050Y6800D03*
X1750Y800D03*
X3050Y800D03*
X3850Y800D03*
X5150Y800D03*
X4404Y1971D03*
X5704Y1971D03*
X10150Y800D03*
X11450Y800D03*
X4404Y3152D03*
X5704Y3152D03*
X7250Y800D03*
X5950Y800D03*
X9350Y800D03*
X8050Y800D03*
X10350Y9300D03*
X9050Y9300D03*
X10350Y8300D03*
X9050Y8300D03*
X3150Y10700D03*
X1850Y10700D03*
X7650Y10700D03*
X6350Y10700D03*
X5850Y8300D03*
X4550Y8300D03*
X11350Y9300D03*
X12650Y9300D03*
X4050Y10700D03*
X5350Y10700D03*
G54D14*
X9400Y7200D03*
G54D15*
X9400Y6200D03*
G54D14*
X11700Y3000D03*
G54D15*
X11700Y2000D03*
G54D14*
X6900Y8300D03*
G54D15*
X7900Y8300D03*
G54D16*
X10412Y2554D03*
X10412Y1845D03*
X10787Y1845D03*
X10787Y2554D03*
G54D17*
X6830Y9600D03*
X7970Y9600D03*
G54D18*
X3282Y9058D03*
X920Y9058D03*
X3282Y2365D03*
X920Y2365D03*
G54D19*
X10844Y10600D03*
X8955Y10600D03*
G54D20*
X3525Y5600D03*
X3900Y5600D03*
X4275Y5600D03*
X4275Y4600D03*
X3900Y4600D03*
X3525Y4600D03*
X5775Y4600D03*
X5400Y4600D03*
X5025Y4600D03*
X5025Y5600D03*
X5400Y5600D03*
X5775Y5600D03*
G54D13*
X4550Y9500D03*
X5850Y9500D03*
X12650Y8300D03*
X11350Y8300D03*
G54D21*
X600Y10900D03*
X12600Y10900D03*
X12600Y600D03*
X600Y600D03*
G54D22*
X10754Y4200D03*
X12045Y5200D03*
X12045Y7200D03*
X10754Y6200D03*
X954Y4200D03*
X2245Y5200D03*
X2245Y7200D03*
X954Y6200D03*
M02*
