G04 (created by PCBNEW (2013-03-31 BZR 4008)-stable) date 4/4/2013 9:15:26 PM*
%MOIN*%
G04 Gerber Fmt 3.4, Leading zero omitted, Abs format*
%FSLAX34Y34*%
G01*
G70*
G90*
G04 APERTURE LIST*
%ADD10C,0.000393701*%
%ADD11R,0.055X0.055*%
%ADD12C,0.055*%
%ADD13C,0.08*%
%ADD14C,0.035*%
%ADD15C,0.05*%
%ADD16C,0.01*%
%ADD17C,0.02*%
G04 APERTURE END LIST*
G54D10*
G54D11*
X9400Y7200D03*
G54D12*
X9400Y6200D03*
G54D11*
X11700Y3000D03*
G54D12*
X11700Y2000D03*
G54D11*
X6900Y8300D03*
G54D12*
X7900Y8300D03*
G54D13*
X600Y10900D03*
X12600Y10900D03*
X12600Y600D03*
X600Y600D03*
G54D14*
X6600Y400D03*
X11700Y4200D03*
X6300Y4500D03*
X1200Y4900D03*
X4898Y4166D03*
X8700Y1200D03*
X4250Y3900D03*
X5400Y6050D03*
X3500Y6850D03*
X11970Y7860D03*
X3810Y3360D03*
X3500Y6200D03*
X4690Y5140D03*
X7238Y4483D03*
X4166Y6465D03*
X4500Y990D03*
X3963Y9492D03*
X7950Y5608D03*
X8416Y6584D03*
X7572Y2361D03*
X8971Y2746D03*
X10700Y3300D03*
X8716Y2358D03*
X8982Y3449D03*
X10210Y3349D03*
X9296Y2361D03*
X7904Y4491D03*
X11176Y7385D03*
X5200Y7600D03*
X12750Y6500D03*
G54D15*
X1200Y1800D02*
X1200Y4900D01*
X2600Y400D02*
X1200Y1800D01*
X11700Y4200D02*
X12600Y3600D01*
G54D16*
X5966Y4166D02*
X4898Y4166D01*
X6300Y4500D02*
X5966Y4166D01*
X8700Y1200D02*
X8600Y1100D01*
G54D15*
X6300Y400D02*
X6300Y4500D01*
X6300Y400D02*
X2600Y400D01*
X11700Y1100D02*
X8600Y1100D01*
X12500Y1800D02*
X11700Y1100D01*
X12600Y1900D02*
X12500Y1800D01*
X12600Y3600D02*
X12600Y1900D01*
X7400Y400D02*
X6600Y400D01*
X8486Y1100D02*
X7400Y400D01*
X8600Y1100D02*
X8486Y1100D01*
X6600Y400D02*
X6300Y400D01*
G54D17*
X4250Y6050D02*
X4250Y3900D01*
X4000Y6050D02*
X4250Y6050D01*
X4250Y6050D02*
X5400Y6050D01*
X3850Y6200D02*
X4000Y6050D01*
X3806Y6459D02*
X3850Y6200D01*
X3500Y6850D02*
X3806Y6459D01*
G54D16*
X8090Y8109D02*
X11610Y8110D01*
X11610Y8110D02*
X11970Y7860D01*
X7900Y8300D02*
X8090Y8109D01*
X3500Y6200D02*
X3500Y6200D01*
X3500Y3500D02*
X3500Y6200D01*
X3810Y3360D02*
X3500Y3500D01*
X6700Y5140D02*
X7238Y4483D01*
X4690Y5140D02*
X6700Y5140D01*
X3640Y9170D02*
X3640Y7362D01*
X3963Y9492D02*
X3640Y9170D01*
X3182Y2307D02*
X4500Y990D01*
X3182Y7164D02*
X3182Y2307D01*
X3380Y7362D02*
X3182Y7164D01*
X3640Y7362D02*
X3380Y7362D01*
X6999Y6558D02*
X7950Y5608D01*
X4259Y6558D02*
X6999Y6558D01*
X4166Y6465D02*
X4259Y6558D01*
X4259Y6743D02*
X3640Y7362D01*
X4259Y6558D02*
X4259Y6743D01*
X9400Y6200D02*
X8623Y6200D01*
X8416Y6406D02*
X8416Y6584D01*
X8623Y6200D02*
X8416Y6406D01*
X7572Y4646D02*
X7572Y2361D01*
X8623Y5697D02*
X7572Y4646D01*
X8623Y6200D02*
X8623Y5697D01*
X10700Y3333D02*
X10700Y3300D01*
X10342Y3678D02*
X10700Y3333D01*
X9903Y3678D02*
X10342Y3678D01*
X8971Y2746D02*
X9903Y3678D01*
X9074Y2000D02*
X11700Y2000D01*
X8716Y2358D02*
X9074Y2000D01*
X9425Y3891D02*
X8982Y3449D01*
X10595Y3891D02*
X9425Y3891D01*
X11274Y3212D02*
X10595Y3891D01*
X11274Y3000D02*
X11274Y3212D01*
X11700Y3000D02*
X11274Y3000D01*
X9296Y2435D02*
X10210Y3349D01*
X9296Y2361D02*
X9296Y2435D01*
X11176Y7385D02*
X11176Y7385D01*
X11176Y7347D02*
X11176Y7385D01*
X8320Y4491D02*
X11176Y7347D01*
X7904Y4491D02*
X8320Y4491D01*
G54D15*
X5200Y10200D02*
X5200Y7600D01*
X11900Y10200D02*
X5200Y10200D01*
X12750Y9500D02*
X11900Y10200D01*
X12750Y6500D02*
X12750Y9500D01*
M02*
