  0
SECTION
  2
HEADER
  9
$ANGBASE
  50
0.0
  9
$ANGDIR
  70
  1
  9
$MEASUREMENT
  70
0
  0
ENDSEC
  0
SECTION
  2
TABLES
  0
TABLE
  2
LTYPE
  70
1
  0
LTYPE
  2
CONTINUOUS
  70
0
  3
Solid line
  72
65
  73
0
  40
0.0
  0
ENDTAB
  0
TABLE
  2
STYLE
  70
4
  0
STYLE
  2
KICAD
  70
0
  40
0
  41
1
  42
1
  50
0
  71
0
  3
isocp.shx
  0
STYLE
  2
KICADB
  70
0
  40
0
  41
1
  42
1
  50
0
  71
0
  3
isocp.shx
  0
STYLE
  2
KICADI
  70
0
  40
0
  41
1
  42
1
  50
15
  71
0
  3
isocp.shx
  0
STYLE
  2
KICADBI
  70
0
  40
0
  41
1
  42
1
  50
15
  71
0
  3
isocp.shx
  0
ENDTAB
  0
TABLE
  2
LAYER
  70
24
  0
LAYER
  2
BLACK
  70
0
  62
250
  6
CONTINUOUS
  0
LAYER
  2
BLUE
  70
0
  62
5
  6
CONTINUOUS
  0
LAYER
  2
GREEN
  70
0
  62
3
  6
CONTINUOUS
  0
LAYER
  2
CYAN
  70
0
  62
4
  6
CONTINUOUS
  0
LAYER
  2
RED
  70
0
  62
1
  6
CONTINUOUS
  0
LAYER
  2
MAGENTA
  70
0
  62
6
  6
CONTINUOUS
  0
LAYER
  2
BROWN
  70
0
  62
54
  6
CONTINUOUS
  0
LAYER
  2
LIGHTGRAY
  70
0
  62
9
  6
CONTINUOUS
  0
LAYER
  2
DARKGRAY
  70
0
  62
8
  6
CONTINUOUS
  0
LAYER
  2
LIGHTBLUE
  70
0
  62
171
  6
CONTINUOUS
  0
LAYER
  2
LIGHTGREEN
  70
0
  62
91
  6
CONTINUOUS
  0
LAYER
  2
LIGHTCYAN
  70
0
  62
131
  6
CONTINUOUS
  0
LAYER
  2
LIGHTRED
  70
0
  62
11
  6
CONTINUOUS
  0
LAYER
  2
LIGHTMAGENTA
  70
0
  62
221
  6
CONTINUOUS
  0
LAYER
  2
YELLOW
  70
0
  62
2
  6
CONTINUOUS
  0
LAYER
  2
WHITE
  70
0
  62
7
  6
CONTINUOUS
  0
LAYER
  2
DARKDARKGRAY
  70
0
  62
251
  6
CONTINUOUS
  0
LAYER
  2
DARKBLUE
  70
0
  62
178
  6
CONTINUOUS
  0
LAYER
  2
DARKGREEN
  70
0
  62
98
  6
CONTINUOUS
  0
LAYER
  2
DARKCYAN
  70
0
  62
138
  6
CONTINUOUS
  0
LAYER
  2
DARKRED
  70
0
  62
18
  6
CONTINUOUS
  0
LAYER
  2
DARKMAGENTA
  70
0
  62
228
  6
CONTINUOUS
  0
LAYER
  2
DARKBROWN
  70
0
  62
58
  6
CONTINUOUS
  0
LAYER
  2
LIGHTYELLOW
  70
0
  62
51
  6
CONTINUOUS
  0
ENDTAB
  0
ENDSEC
  0
SECTION
  2
ENTITIES
0
LINE
8
BLACK
10
17.3533
20
18.8608
11
17.3533
21
17.4612
0
LINE
8
BLACK
10
17.3533
20
17.4612
11
17.9527
21
17.4612
0
LINE
8
BLACK
10
17.9527
20
17.4612
11
17.9527
21
18.8608
0
LINE
8
BLACK
10
17.9527
20
18.8608
11
17.3533
21
18.8608
0
LINE
8
BLACK
10
17.3533
20
13.5268
11
17.3533
21
12.1272
0
LINE
8
BLACK
10
17.3533
20
12.1272
11
17.9527
21
12.1272
0
LINE
8
BLACK
10
17.9527
20
12.1272
11
17.9527
21
13.5268
0
LINE
8
BLACK
10
17.9527
20
13.5268
11
17.3533
21
13.5268
0
LINE
8
BLACK
10
18.6233
20
18.8608
11
18.6233
21
17.4612
0
LINE
8
BLACK
10
18.6233
20
17.4612
11
19.2227
21
17.4612
0
LINE
8
BLACK
10
19.2227
20
17.4612
11
19.2227
21
18.8608
0
LINE
8
BLACK
10
19.2227
20
18.8608
11
18.6233
21
18.8608
0
LINE
8
BLACK
10
19.8933
20
18.8608
11
19.8933
21
17.4612
0
LINE
8
BLACK
10
19.8933
20
17.4612
11
20.4927
21
17.4612
0
LINE
8
BLACK
10
20.4927
20
17.4612
11
20.4927
21
18.8608
0
LINE
8
BLACK
10
20.4927
20
18.8608
11
19.8933
21
18.8608
0
LINE
8
BLACK
10
21.1633
20
18.8608
11
21.1633
21
17.4612
0
LINE
8
BLACK
10
21.1633
20
17.4612
11
21.7627
21
17.4612
0
LINE
8
BLACK
10
21.7627
20
17.4612
11
21.7627
21
18.8608
0
LINE
8
BLACK
10
21.7627
20
18.8608
11
21.1633
21
18.8608
0
LINE
8
BLACK
10
18.6233
20
13.5268
11
18.6233
21
12.1272
0
LINE
8
BLACK
10
18.6233
20
12.1272
11
19.2227
21
12.1272
0
LINE
8
BLACK
10
19.2227
20
12.1272
11
19.2227
21
13.5268
0
LINE
8
BLACK
10
19.2227
20
13.5268
11
18.6233
21
13.5268
0
LINE
8
BLACK
10
19.8933
20
13.5268
11
19.8933
21
12.1272
0
LINE
8
BLACK
10
19.8933
20
12.1272
11
20.4927
21
12.1272
0
LINE
8
BLACK
10
20.4927
20
12.1272
11
20.4927
21
13.5268
0
LINE
8
BLACK
10
20.4927
20
13.5268
11
19.8933
21
13.5268
0
LINE
8
BLACK
10
21.1633
20
13.5268
11
21.1633
21
12.1272
0
LINE
8
BLACK
10
21.1633
20
12.1272
11
21.7627
21
12.1272
0
LINE
8
BLACK
10
21.7627
20
12.1272
11
21.7627
21
13.5268
0
LINE
8
BLACK
10
21.7627
20
13.5268
11
21.1633
21
13.5268
0
LINE
8
BLACK
10
16.774
20
5.2855
11
16.774
21
4.1425
0
LINE
8
BLACK
10
16.774
20
4.1425
11
17.282
21
4.1425
0
LINE
8
BLACK
10
17.282
20
4.1425
11
17.282
21
5.2855
0
LINE
8
BLACK
10
17.282
20
5.2855
11
16.774
21
5.2855
0
LINE
8
BLACK
10
18.044
20
5.2855
11
18.044
21
4.1425
0
LINE
8
BLACK
10
18.044
20
4.1425
11
18.552
21
4.1425
0
LINE
8
BLACK
10
18.552
20
4.1425
11
18.552
21
5.2855
0
LINE
8
BLACK
10
18.552
20
5.2855
11
18.044
21
5.2855
0
LINE
8
BLACK
10
19.314
20
5.2855
11
19.314
21
4.1425
0
LINE
8
BLACK
10
19.314
20
4.1425
11
19.822
21
4.1425
0
LINE
8
BLACK
10
19.822
20
4.1425
11
19.822
21
5.2855
0
LINE
8
BLACK
10
19.822
20
5.2855
11
19.314
21
5.2855
0
LINE
8
BLACK
10
20.584
20
5.2855
11
20.584
21
4.1425
0
LINE
8
BLACK
10
20.584
20
4.1425
11
21.092
21
4.1425
0
LINE
8
BLACK
10
21.092
20
4.1425
11
21.092
21
5.2855
0
LINE
8
BLACK
10
21.092
20
5.2855
11
20.584
21
5.2855
0
LINE
8
BLACK
10
21.854
20
5.2855
11
21.854
21
4.1425
0
LINE
8
BLACK
10
21.854
20
4.1425
11
22.362
21
4.1425
0
LINE
8
BLACK
10
22.362
20
4.1425
11
22.362
21
5.2855
0
LINE
8
BLACK
10
22.362
20
5.2855
11
21.854
21
5.2855
0
LINE
8
BLACK
10
23.124
20
5.2855
11
23.124
21
4.1425
0
LINE
8
BLACK
10
23.124
20
4.1425
11
23.632
21
4.1425
0
LINE
8
BLACK
10
23.632
20
4.1425
11
23.632
21
5.2855
0
LINE
8
BLACK
10
23.632
20
5.2855
11
23.124
21
5.2855
0
LINE
8
BLACK
10
24.394
20
5.2855
11
24.394
21
4.1425
0
LINE
8
BLACK
10
24.394
20
4.1425
11
24.902
21
4.1425
0
LINE
8
BLACK
10
24.902
20
4.1425
11
24.902
21
5.2855
0
LINE
8
BLACK
10
24.902
20
5.2855
11
24.394
21
5.2855
0
LINE
8
BLACK
10
24.394
20
10.6195
11
24.394
21
9.4765
0
LINE
8
BLACK
10
24.394
20
9.4765
11
24.902
21
9.4765
0
LINE
8
BLACK
10
24.902
20
9.4765
11
24.902
21
10.6195
0
LINE
8
BLACK
10
24.902
20
10.6195
11
24.394
21
10.6195
0
LINE
8
BLACK
10
23.124
20
10.6195
11
23.124
21
9.4765
0
LINE
8
BLACK
10
23.124
20
9.4765
11
23.632
21
9.4765
0
LINE
8
BLACK
10
23.632
20
9.4765
11
23.632
21
10.6195
0
LINE
8
BLACK
10
23.632
20
10.6195
11
23.124
21
10.6195
0
LINE
8
BLACK
10
21.854
20
10.6195
11
21.854
21
9.4765
0
LINE
8
BLACK
10
21.854
20
9.4765
11
22.362
21
9.4765
0
LINE
8
BLACK
10
22.362
20
9.4765
11
22.362
21
10.6195
0
LINE
8
BLACK
10
22.362
20
10.6195
11
21.854
21
10.6195
0
LINE
8
BLACK
10
20.584
20
10.6195
11
20.584
21
9.4765
0
LINE
8
BLACK
10
20.584
20
9.4765
11
21.092
21
9.4765
0
LINE
8
BLACK
10
21.092
20
9.4765
11
21.092
21
10.6195
0
LINE
8
BLACK
10
21.092
20
10.6195
11
20.584
21
10.6195
0
LINE
8
BLACK
10
19.314
20
10.6195
11
19.314
21
9.4765
0
LINE
8
BLACK
10
19.314
20
9.4765
11
19.822
21
9.4765
0
LINE
8
BLACK
10
19.822
20
9.4765
11
19.822
21
10.6195
0
LINE
8
BLACK
10
19.822
20
10.6195
11
19.314
21
10.6195
0
LINE
8
BLACK
10
18.044
20
10.6195
11
18.044
21
9.4765
0
LINE
8
BLACK
10
18.044
20
9.4765
11
18.552
21
9.4765
0
LINE
8
BLACK
10
18.552
20
9.4765
11
18.552
21
10.6195
0
LINE
8
BLACK
10
18.552
20
10.6195
11
18.044
21
10.6195
0
LINE
8
BLACK
10
16.774
20
10.6195
11
16.774
21
9.4765
0
LINE
8
BLACK
10
16.774
20
9.4765
11
17.282
21
9.4765
0
LINE
8
BLACK
10
17.282
20
9.4765
11
17.282
21
10.6195
0
LINE
8
BLACK
10
17.282
20
10.6195
11
16.774
21
10.6195
0
LINE
8
BLACK
10
11.303
20
18.288
11
11.303
21
16.256
0
LINE
8
BLACK
10
11.303
20
16.256
11
12.827
21
16.256
0
LINE
8
BLACK
10
12.827
20
16.256
11
12.827
21
18.288
0
LINE
8
BLACK
10
12.827
20
18.288
11
11.303
21
18.288
0
LINE
8
BLACK
10
14.605
20
18.288
11
14.605
21
16.256
0
LINE
8
BLACK
10
14.605
20
16.256
11
16.129
21
16.256
0
LINE
8
BLACK
10
16.129
20
16.256
11
16.129
21
18.288
0
LINE
8
BLACK
10
16.129
20
18.288
11
14.605
21
18.288
0
LINE
8
BLACK
10
3.683
20
3.048
11
3.683
21
1.016
0
LINE
8
BLACK
10
3.683
20
1.016
11
5.207
21
1.016
0
LINE
8
BLACK
10
5.207
20
1.016
11
5.207
21
3.048
0
LINE
8
BLACK
10
5.207
20
3.048
11
3.683
21
3.048
0
LINE
8
BLACK
10
6.985
20
3.048
11
6.985
21
1.016
0
LINE
8
BLACK
10
6.985
20
1.016
11
8.509
21
1.016
0
LINE
8
BLACK
10
8.509
20
1.016
11
8.509
21
3.048
0
LINE
8
BLACK
10
8.509
20
3.048
11
6.985
21
3.048
0
LINE
8
BLACK
10
9.017
20
3.048
11
9.017
21
1.016
0
LINE
8
BLACK
10
9.017
20
1.016
11
10.541
21
1.016
0
LINE
8
BLACK
10
10.541
20
1.016
11
10.541
21
3.048
0
LINE
8
BLACK
10
10.541
20
3.048
11
9.017
21
3.048
0
LINE
8
BLACK
10
12.319
20
3.048
11
12.319
21
1.016
0
LINE
8
BLACK
10
12.319
20
1.016
11
13.843
21
1.016
0
LINE
8
BLACK
10
13.843
20
1.016
11
13.843
21
3.048
0
LINE
8
BLACK
10
13.843
20
3.048
11
12.319
21
3.048
0
LINE
8
BLACK
10
10.425
20
6.024
11
10.425
21
3.992
0
LINE
8
BLACK
10
10.425
20
3.992
11
11.949
21
3.992
0
LINE
8
BLACK
10
11.949
20
3.992
11
11.949
21
6.024
0
LINE
8
BLACK
10
11.949
20
6.024
11
10.425
21
6.024
0
LINE
8
BLACK
10
13.727
20
6.024
11
13.727
21
3.992
0
LINE
8
BLACK
10
13.727
20
3.992
11
15.251
21
3.992
0
LINE
8
BLACK
10
15.251
20
3.992
11
15.251
21
6.024
0
LINE
8
BLACK
10
15.251
20
6.024
11
13.727
21
6.024
0
LINE
8
BLACK
10
25.019
20
3.048
11
25.019
21
1.016
0
LINE
8
BLACK
10
25.019
20
1.016
11
26.543
21
1.016
0
LINE
8
BLACK
10
26.543
20
1.016
11
26.543
21
3.048
0
LINE
8
BLACK
10
26.543
20
3.048
11
25.019
21
3.048
0
LINE
8
BLACK
10
28.321
20
3.048
11
28.321
21
1.016
0
LINE
8
BLACK
10
28.321
20
1.016
11
29.845
21
1.016
0
LINE
8
BLACK
10
29.845
20
1.016
11
29.845
21
3.048
0
LINE
8
BLACK
10
29.845
20
3.048
11
28.321
21
3.048
0
LINE
8
BLACK
10
10.425
20
9.024
11
10.425
21
6.992
0
LINE
8
BLACK
10
10.425
20
6.992
11
11.949
21
6.992
0
LINE
8
BLACK
10
11.949
20
6.992
11
11.949
21
9.024
0
LINE
8
BLACK
10
11.949
20
9.024
11
10.425
21
9.024
0
LINE
8
BLACK
10
13.727
20
9.024
11
13.727
21
6.992
0
LINE
8
BLACK
10
13.727
20
6.992
11
15.251
21
6.992
0
LINE
8
BLACK
10
15.251
20
6.992
11
15.251
21
9.024
0
LINE
8
BLACK
10
15.251
20
9.024
11
13.727
21
9.024
0
LINE
8
BLACK
10
19.177
20
1.016
11
19.177
21
3.048
0
LINE
8
BLACK
10
19.177
20
3.048
11
17.653
21
3.048
0
LINE
8
BLACK
10
17.653
20
3.048
11
17.653
21
1.016
0
LINE
8
BLACK
10
17.653
20
1.016
11
19.177
21
1.016
0
LINE
8
BLACK
10
15.875
20
1.016
11
15.875
21
3.048
0
LINE
8
BLACK
10
15.875
20
3.048
11
14.351
21
3.048
0
LINE
8
BLACK
10
14.351
20
3.048
11
14.351
21
1.016
0
LINE
8
BLACK
10
14.351
20
1.016
11
15.875
21
1.016
0
LINE
8
BLACK
10
24.511
20
1.016
11
24.511
21
3.048
0
LINE
8
BLACK
10
24.511
20
3.048
11
22.987
21
3.048
0
LINE
8
BLACK
10
22.987
20
3.048
11
22.987
21
1.016
0
LINE
8
BLACK
10
22.987
20
1.016
11
24.511
21
1.016
0
LINE
8
BLACK
10
21.209
20
1.016
11
21.209
21
3.048
0
LINE
8
BLACK
10
21.209
20
3.048
11
19.685
21
3.048
0
LINE
8
BLACK
10
19.685
20
3.048
11
19.685
21
1.016
0
LINE
8
BLACK
10
19.685
20
1.016
11
21.209
21
1.016
0
LINE
8
BLACK
10
27.051
20
22.606
11
27.051
21
24.638
0
LINE
8
BLACK
10
27.051
20
24.638
11
25.527
21
24.638
0
LINE
8
BLACK
10
25.527
20
24.638
11
25.527
21
22.606
0
LINE
8
BLACK
10
25.527
20
22.606
11
27.051
21
22.606
0
LINE
8
BLACK
10
23.749
20
22.606
11
23.749
21
24.638
0
LINE
8
BLACK
10
23.749
20
24.638
11
22.225
21
24.638
0
LINE
8
BLACK
10
22.225
20
24.638
11
22.225
21
22.606
0
LINE
8
BLACK
10
22.225
20
22.606
11
23.749
21
22.606
0
LINE
8
BLACK
10
27.051
20
20.066
11
27.051
21
22.098
0
LINE
8
BLACK
10
27.051
20
22.098
11
25.527
21
22.098
0
LINE
8
BLACK
10
25.527
20
22.098
11
25.527
21
20.066
0
LINE
8
BLACK
10
25.527
20
20.066
11
27.051
21
20.066
0
LINE
8
BLACK
10
23.749
20
20.066
11
23.749
21
22.098
0
LINE
8
BLACK
10
23.749
20
22.098
11
22.225
21
22.098
0
LINE
8
BLACK
10
22.225
20
22.098
11
22.225
21
20.066
0
LINE
8
BLACK
10
22.225
20
20.066
11
23.749
21
20.066
0
LINE
8
BLACK
10
8.763
20
26.162
11
8.763
21
28.194
0
LINE
8
BLACK
10
8.763
20
28.194
11
7.239
21
28.194
0
LINE
8
BLACK
10
7.239
20
28.194
11
7.239
21
26.162
0
LINE
8
BLACK
10
7.239
20
26.162
11
8.763
21
26.162
0
LINE
8
BLACK
10
5.461
20
26.162
11
5.461
21
28.194
0
LINE
8
BLACK
10
5.461
20
28.194
11
3.937
21
28.194
0
LINE
8
BLACK
10
3.937
20
28.194
11
3.937
21
26.162
0
LINE
8
BLACK
10
3.937
20
26.162
11
5.461
21
26.162
0
LINE
8
BLACK
10
20.193
20
26.162
11
20.193
21
28.194
0
LINE
8
BLACK
10
20.193
20
28.194
11
18.669
21
28.194
0
LINE
8
BLACK
10
18.669
20
28.194
11
18.669
21
26.162
0
LINE
8
BLACK
10
18.669
20
26.162
11
20.193
21
26.162
0
LINE
8
BLACK
10
16.891
20
26.162
11
16.891
21
28.194
0
LINE
8
BLACK
10
16.891
20
28.194
11
15.367
21
28.194
0
LINE
8
BLACK
10
15.367
20
28.194
11
15.367
21
26.162
0
LINE
8
BLACK
10
15.367
20
26.162
11
16.891
21
26.162
0
LINE
8
BLACK
10
15.621
20
20.066
11
15.621
21
22.098
0
LINE
8
BLACK
10
15.621
20
22.098
11
14.097
21
22.098
0
LINE
8
BLACK
10
14.097
20
22.098
11
14.097
21
20.066
0
LINE
8
BLACK
10
14.097
20
20.066
11
15.621
21
20.066
0
LINE
8
BLACK
10
12.319
20
20.066
11
12.319
21
22.098
0
LINE
8
BLACK
10
12.319
20
22.098
11
10.795
21
22.098
0
LINE
8
BLACK
10
10.795
20
22.098
11
10.795
21
20.066
0
LINE
8
BLACK
10
10.795
20
20.066
11
12.319
21
20.066
0
LINE
8
BLACK
10
28.067
20
24.638
11
28.067
21
22.606
0
LINE
8
BLACK
10
28.067
20
22.606
11
29.591
21
22.606
0
LINE
8
BLACK
10
29.591
20
22.606
11
29.591
21
24.638
0
LINE
8
BLACK
10
29.591
20
24.638
11
28.067
21
24.638
0
LINE
8
BLACK
10
31.369
20
24.638
11
31.369
21
22.606
0
LINE
8
BLACK
10
31.369
20
22.606
11
32.893
21
22.606
0
LINE
8
BLACK
10
32.893
20
22.606
11
32.893
21
24.638
0
LINE
8
BLACK
10
32.893
20
24.638
11
31.369
21
24.638
0
LINE
8
BLACK
10
9.525
20
28.194
11
9.525
21
26.162
0
LINE
8
BLACK
10
9.525
20
26.162
11
11.049
21
26.162
0
LINE
8
BLACK
10
11.049
20
26.162
11
11.049
21
28.194
0
LINE
8
BLACK
10
11.049
20
28.194
11
9.525
21
28.194
0
LINE
8
BLACK
10
12.827
20
28.194
11
12.827
21
26.162
0
LINE
8
BLACK
10
12.827
20
26.162
11
14.351
21
26.162
0
LINE
8
BLACK
10
14.351
20
26.162
11
14.351
21
28.194
0
LINE
8
BLACK
10
14.351
20
28.194
11
12.827
21
28.194
0
LINE
8
BLACK
10
26.749
20
7.088
11
26.149
21
7.088
0
LINE
8
BLACK
10
26.149
20
7.088
11
26.149
21
5.888
0
LINE
8
BLACK
10
26.149
20
5.888
11
26.749
21
5.888
0
LINE
8
BLACK
10
26.749
20
5.888
11
26.749
21
7.088
0
LINE
8
BLACK
10
26.749
20
5.288
11
26.149
21
5.288
0
LINE
8
BLACK
10
26.149
20
5.288
11
26.149
21
4.088
0
LINE
8
BLACK
10
26.149
20
4.088
11
26.749
21
4.088
0
LINE
8
BLACK
10
26.749
20
4.088
11
26.749
21
5.288
0
LINE
8
BLACK
10
27.699
20
5.288
11
27.099
21
5.288
0
LINE
8
BLACK
10
27.099
20
5.288
11
27.099
21
4.088
0
LINE
8
BLACK
10
27.099
20
4.088
11
27.699
21
4.088
0
LINE
8
BLACK
10
27.699
20
4.088
11
27.699
21
5.288
0
LINE
8
BLACK
10
27.699
20
7.088
11
27.099
21
7.088
0
LINE
8
BLACK
10
27.099
20
7.088
11
27.099
21
5.888
0
LINE
8
BLACK
10
27.099
20
5.888
11
27.699
21
5.888
0
LINE
8
BLACK
10
27.699
20
5.888
11
27.699
21
7.088
0
LINE
8
BLACK
10
18.0975
20
23.7846
11
18.0975
21
24.9834
0
LINE
8
BLACK
10
18.0975
20
24.9834
11
16.5989
21
24.9834
0
LINE
8
BLACK
10
16.5989
20
24.9834
11
16.5989
21
23.7846
0
LINE
8
BLACK
10
16.5989
20
23.7846
11
18.0975
21
23.7846
0
LINE
8
BLACK
10
20.9931
20
23.7846
11
20.9931
21
24.9834
0
LINE
8
BLACK
10
20.9931
20
24.9834
11
19.4945
21
24.9834
0
LINE
8
BLACK
10
19.4945
20
24.9834
11
19.4945
21
23.7846
0
LINE
8
BLACK
10
19.4945
20
23.7846
11
20.9931
21
23.7846
0
LINE
8
BLACK
10
9.33723
20
21.5081
11
9.33723
21
24.5079
0
LINE
8
BLACK
10
9.33723
20
24.5079
11
7.33825
21
24.5079
0
LINE
8
BLACK
10
7.33825
20
24.5079
11
7.33825
21
21.5081
0
LINE
8
BLACK
10
7.33825
20
21.5081
11
9.33723
21
21.5081
0
LINE
8
BLACK
10
3.33775
20
21.5081
11
3.33775
21
24.5079
0
LINE
8
BLACK
10
3.33775
20
24.5079
11
1.33877
21
24.5079
0
LINE
8
BLACK
10
1.33877
20
24.5079
11
1.33877
21
21.5081
0
LINE
8
BLACK
10
1.33877
20
21.5081
11
3.33775
21
21.5081
0
LINE
8
BLACK
10
9.33723
20
4.50813
11
9.33723
21
7.50787
0
LINE
8
BLACK
10
9.33723
20
7.50787
11
7.33825
21
7.50787
0
LINE
8
BLACK
10
7.33825
20
7.50787
11
7.33825
21
4.50813
0
LINE
8
BLACK
10
7.33825
20
4.50813
11
9.33723
21
4.50813
0
LINE
8
BLACK
10
3.33775
20
4.50813
11
3.33775
21
7.50787
0
LINE
8
BLACK
10
3.33775
20
7.50787
11
1.33877
21
7.50787
0
LINE
8
BLACK
10
1.33877
20
7.50787
11
1.33877
21
4.50813
0
LINE
8
BLACK
10
1.33877
20
4.50813
11
3.33775
21
4.50813
0
LINE
8
BLACK
10
28.946
20
25.824
11
28.946
21
28.024
0
LINE
8
BLACK
10
28.946
20
28.024
11
26.146
21
28.024
0
LINE
8
BLACK
10
26.146
20
28.024
11
26.146
21
25.824
0
LINE
8
BLACK
10
26.146
20
25.824
11
28.946
21
25.824
0
LINE
8
BLACK
10
24.146
20
25.824
11
24.146
21
28.024
0
LINE
8
BLACK
10
24.146
20
28.024
11
21.346
21
28.024
0
LINE
8
BLACK
10
21.346
20
28.024
11
21.346
21
25.824
0
LINE
8
BLACK
10
21.346
20
25.824
11
24.146
21
25.824
0
LINE
8
BLACK
10
8.6785
20
14.624
11
8.6785
21
13.824
0
LINE
8
BLACK
10
8.6785
20
13.824
11
9.2285
21
13.824
0
LINE
8
BLACK
10
9.2285
20
13.824
11
9.2285
21
14.624
0
LINE
8
BLACK
10
9.2285
20
14.624
11
8.6785
21
14.624
0
LINE
8
BLACK
10
9.631
20
14.624
11
9.631
21
13.824
0
LINE
8
BLACK
10
9.631
20
13.824
11
10.181
21
13.824
0
LINE
8
BLACK
10
10.181
20
13.824
11
10.181
21
14.624
0
LINE
8
BLACK
10
10.181
20
14.624
11
9.631
21
14.624
0
LINE
8
BLACK
10
10.5835
20
14.624
11
10.5835
21
13.824
0
LINE
8
BLACK
10
10.5835
20
13.824
11
11.1335
21
13.824
0
LINE
8
BLACK
10
11.1335
20
13.824
11
11.1335
21
14.624
0
LINE
8
BLACK
10
11.1335
20
14.624
11
10.5835
21
14.624
0
LINE
8
BLACK
10
10.5835
20
12.084
11
10.5835
21
11.284
0
LINE
8
BLACK
10
10.5835
20
11.284
11
11.1335
21
11.284
0
LINE
8
BLACK
10
11.1335
20
11.284
11
11.1335
21
12.084
0
LINE
8
BLACK
10
11.1335
20
12.084
11
10.5835
21
12.084
0
LINE
8
BLACK
10
9.631
20
12.084
11
9.631
21
11.284
0
LINE
8
BLACK
10
9.631
20
11.284
11
10.181
21
11.284
0
LINE
8
BLACK
10
10.181
20
11.284
11
10.181
21
12.084
0
LINE
8
BLACK
10
10.181
20
12.084
11
9.631
21
12.084
0
LINE
8
BLACK
10
8.6785
20
12.084
11
8.6785
21
11.284
0
LINE
8
BLACK
10
8.6785
20
11.284
11
9.2285
21
11.284
0
LINE
8
BLACK
10
9.2285
20
11.284
11
9.2285
21
12.084
0
LINE
8
BLACK
10
9.2285
20
12.084
11
8.6785
21
12.084
0
LINE
8
BLACK
10
14.9435
20
11.284
11
14.9435
21
12.084
0
LINE
8
BLACK
10
14.9435
20
12.084
11
14.3935
21
12.084
0
LINE
8
BLACK
10
14.3935
20
12.084
11
14.3935
21
11.284
0
LINE
8
BLACK
10
14.3935
20
11.284
11
14.9435
21
11.284
0
LINE
8
BLACK
10
13.991
20
11.284
11
13.991
21
12.084
0
LINE
8
BLACK
10
13.991
20
12.084
11
13.441
21
12.084
0
LINE
8
BLACK
10
13.441
20
12.084
11
13.441
21
11.284
0
LINE
8
BLACK
10
13.441
20
11.284
11
13.991
21
11.284
0
LINE
8
BLACK
10
13.0385
20
11.284
11
13.0385
21
12.084
0
LINE
8
BLACK
10
13.0385
20
12.084
11
12.4885
21
12.084
0
LINE
8
BLACK
10
12.4885
20
12.084
11
12.4885
21
11.284
0
LINE
8
BLACK
10
12.4885
20
11.284
11
13.0385
21
11.284
0
LINE
8
BLACK
10
13.0385
20
13.824
11
13.0385
21
14.624
0
LINE
8
BLACK
10
13.0385
20
14.624
11
12.4885
21
14.624
0
LINE
8
BLACK
10
12.4885
20
14.624
11
12.4885
21
13.824
0
LINE
8
BLACK
10
12.4885
20
13.824
11
13.0385
21
13.824
0
LINE
8
BLACK
10
13.991
20
13.824
11
13.991
21
14.624
0
LINE
8
BLACK
10
13.991
20
14.624
11
13.441
21
14.624
0
LINE
8
BLACK
10
13.441
20
14.624
11
13.441
21
13.824
0
LINE
8
BLACK
10
13.441
20
13.824
11
13.991
21
13.824
0
LINE
8
BLACK
10
14.9435
20
13.824
11
14.9435
21
14.624
0
LINE
8
BLACK
10
14.9435
20
14.624
11
14.3935
21
14.624
0
LINE
8
BLACK
10
14.3935
20
14.624
11
14.3935
21
13.824
0
LINE
8
BLACK
10
14.3935
20
13.824
11
14.9435
21
13.824
0
LINE
8
BLACK
10
10.795
20
25.146
11
10.795
21
23.114
0
LINE
8
BLACK
10
10.795
20
23.114
11
12.319
21
23.114
0
LINE
8
BLACK
10
12.319
20
23.114
11
12.319
21
25.146
0
LINE
8
BLACK
10
12.319
20
25.146
11
10.795
21
25.146
0
LINE
8
BLACK
10
14.097
20
25.146
11
14.097
21
23.114
0
LINE
8
BLACK
10
14.097
20
23.114
11
15.621
21
23.114
0
LINE
8
BLACK
10
15.621
20
23.114
11
15.621
21
25.146
0
LINE
8
BLACK
10
15.621
20
25.146
11
14.097
21
25.146
0
LINE
8
BLACK
10
32.893
20
20.066
11
32.893
21
22.098
0
LINE
8
BLACK
10
32.893
20
22.098
11
31.369
21
22.098
0
LINE
8
BLACK
10
31.369
20
22.098
11
31.369
21
20.066
0
LINE
8
BLACK
10
31.369
20
20.066
11
32.893
21
20.066
0
LINE
8
BLACK
10
29.591
20
20.066
11
29.591
21
22.098
0
LINE
8
BLACK
10
29.591
20
22.098
11
28.067
21
22.098
0
LINE
8
BLACK
10
28.067
20
22.098
11
28.067
21
20.066
0
LINE
8
BLACK
10
28.067
20
20.066
11
29.591
21
20.066
0
LINE
8
BLACK
10
28.796
20
11.303
11
25.836
21
11.303
0
LINE
8
BLACK
10
25.836
20
11.303
11
25.836
21
10.033
0
LINE
8
BLACK
10
25.836
20
10.033
11
28.796
21
10.033
0
LINE
8
BLACK
10
28.796
20
10.033
11
28.796
21
11.303
0
LINE
8
BLACK
10
32.076
20
13.843
11
29.116
21
13.843
0
LINE
8
BLACK
10
29.116
20
13.843
11
29.116
21
12.573
0
LINE
8
BLACK
10
29.116
20
12.573
11
32.076
21
12.573
0
LINE
8
BLACK
10
32.076
20
12.573
11
32.076
21
13.843
0
LINE
8
BLACK
10
32.076
20
18.923
11
29.116
21
18.923
0
LINE
8
BLACK
10
29.116
20
18.923
11
29.116
21
17.653
0
LINE
8
BLACK
10
29.116
20
17.653
11
32.076
21
17.653
0
LINE
8
BLACK
10
32.076
20
17.653
11
32.076
21
18.923
0
LINE
8
BLACK
10
28.796
20
16.383
11
25.836
21
16.383
0
LINE
8
BLACK
10
25.836
20
16.383
11
25.836
21
15.113
0
LINE
8
BLACK
10
25.836
20
15.113
11
28.796
21
15.113
0
LINE
8
BLACK
10
28.796
20
15.113
11
28.796
21
16.383
0
LINE
8
BLACK
10
3.904
20
11.303
11
0.944
21
11.303
0
LINE
8
BLACK
10
0.944
20
11.303
11
0.944
21
10.033
0
LINE
8
BLACK
10
0.944
20
10.033
11
3.904
21
10.033
0
LINE
8
BLACK
10
3.904
20
10.033
11
3.904
21
11.303
0
LINE
8
BLACK
10
7.184
20
13.843
11
4.224
21
13.843
0
LINE
8
BLACK
10
4.224
20
13.843
11
4.224
21
12.573
0
LINE
8
BLACK
10
4.224
20
12.573
11
7.184
21
12.573
0
LINE
8
BLACK
10
7.184
20
12.573
11
7.184
21
13.843
0
LINE
8
BLACK
10
7.184
20
18.923
11
4.224
21
18.923
0
LINE
8
BLACK
10
4.224
20
18.923
11
4.224
21
17.653
0
LINE
8
BLACK
10
4.224
20
17.653
11
7.184
21
17.653
0
LINE
8
BLACK
10
7.184
20
17.653
11
7.184
21
18.923
0
LINE
8
BLACK
10
3.904
20
16.383
11
0.944
21
16.383
0
LINE
8
BLACK
10
0.944
20
16.383
11
0.944
21
15.113
0
LINE
8
BLACK
10
0.944
20
15.113
11
3.904
21
15.113
0
LINE
8
BLACK
10
3.904
20
15.113
11
3.904
21
16.383
  0
ENDSEC
  0
EOF
